SplineFontDB: 3.2
FontName: CODE3XR
FullName: CODE3X R
FamilyName: CODE3X
Weight: Book
Copyright: (C)1998-1999 Yuji Adachi.
Version: Macromedia Fonographer 4.1J 99.2.28
ItalicAngle: 0
UnderlinePosition: -143
UnderlineWidth: 20
Ascent: 800
Descent: 200
InvalidEm: 0
sfntRevision: 0x00010000
LayerCount: 2
Layer: 0 1 "Back" 1
Layer: 1 1 "Fore" 0
XUID: [1021 272 -775708995 2056062]
StyleMap: 0x0040
FSType: 1
OS2Version: 0
OS2_WeightWidthSlopeOnly: 0
OS2_UseTypoMetrics: 0
CreationTime: 920241061
ModificationTime: 1600559818
PfmFamily: 81
TTFWeight: 400
TTFWidth: 5
LineGap: 0
VLineGap: 0
Panose: 0 0 4 0 0 0 0 0 0 0
OS2TypoAscent: 930
OS2TypoAOffset: 0
OS2TypoDescent: -74
OS2TypoDOffset: 0
OS2TypoLinegap: 0
OS2WinAscent: 930
OS2WinAOffset: 0
OS2WinDescent: 74
OS2WinDOffset: 0
HheadAscent: 930
HheadAOffset: 0
HheadDescent: -74
HheadDOffset: 0
OS2SubXSize: 700
OS2SubYSize: 650
OS2SubXOff: 0
OS2SubYOff: 143
OS2SupXSize: 700
OS2SupYSize: 650
OS2SupXOff: 0
OS2SupYOff: 453
OS2StrikeYSize: 50
OS2StrikeYPos: 259
OS2Vendor: 'Alts'
OS2UnicodeRanges: 00000000.00000000.00000000.00000000
DEI: 91125
TtTable: prep
NPUSHB
 33
 19
 19
 18
 18
 17
 17
 16
 16
 15
 15
 14
 14
 13
 13
 12
 12
 11
 11
 10
 10
 9
 9
 8
 8
 7
 7
 6
 6
 1
 1
 0
 0
 1
SCANTYPE
PUSHW_1
 511
SCANCTRL
RCVT
ROUND[Grey]
WCVTP
RCVT
ROUND[Grey]
WCVTP
RCVT
ROUND[Grey]
WCVTP
RCVT
ROUND[Grey]
WCVTP
RCVT
ROUND[Grey]
WCVTP
RCVT
ROUND[Grey]
WCVTP
RCVT
ROUND[Grey]
WCVTP
RCVT
ROUND[Grey]
WCVTP
RCVT
ROUND[Grey]
WCVTP
RCVT
ROUND[Grey]
WCVTP
RCVT
ROUND[Grey]
WCVTP
RCVT
ROUND[Grey]
WCVTP
RCVT
ROUND[Grey]
WCVTP
RCVT
ROUND[Grey]
WCVTP
RCVT
ROUND[Grey]
WCVTP
RCVT
ROUND[Grey]
WCVTP
PUSHB_4
 3
 2
 70
 0
CALL
PUSHB_4
 5
 4
 70
 0
CALL
PUSHB_2
 2
 2
RCVT
ROUND[Grey]
WCVTP
PUSHB_2
 4
 4
RCVT
ROUND[Grey]
WCVTP
EndTTInstrs
TtTable: fpgm
NPUSHB
 1
 0
FDEF
SROUND
RCVT
DUP
PUSHB_1
 3
CINDEX
RCVT
SWAP
SUB
ROUND[Grey]
RTG
SWAP
ROUND[Grey]
ADD
WCVTP
ENDF
EndTTInstrs
ShortTable: cvt  33
  -6
  894
  43
  93
  44
  43
  36
  338
  272
  387
  222

StartChar: .notdef
Encoding: 65536 -1 0
Width: 500
Flags: W
LayerCount: 2
Fore
SplineSet
63 0 m 1,0,-1
 63 930 l 1,1,-1
 438 930 l 1,2,-1
 438 0 l 1,3,-1
 63 0 l 1,0,-1
125 63 m 1,4,-1
 375 63 l 1,5,-1
 375 868 l 1,6,-1
 125 868 l 1,7,-1
 125 63 l 1,4,-1
EndSplineSet
Validated: 1
EndChar

StartChar: exclam
Encoding: 33 33 4
Width: 410
VWidth: 1210
Flags: W
LayerCount: 2
Fore
SplineSet
205 281 m 0,0,1
 182 281 182 281 182 303 c 2,2,-1
 182 408 l 2,3,4
 182 429 182 429 205 429 c 0,5,6
 227 429 227 429 227 378 c 0,7,8
 227 368 227 368 227 349 c 0,9,10
 226 329 226 329 226 319 c 0,11,12
 226 281 226 281 205 281 c 0,0,1
177 238 m 0,13,14
 177 260 177 260 199 260 c 0,15,16
 215 260 215 260 223.5 255.5 c 128,-1,17
 232 251 232 251 232 227 c 0,18,19
 232 205 232 205 199 205 c 0,20,21
 177 205 177 205 177 238 c 0,13,14
EndSplineSet
EndChar

StartChar: quotedbl
Encoding: 34 34 5
Width: 410
VWidth: 1210
Flags: W
LayerCount: 2
Fore
SplineSet
221 402 m 2,0,-1
 221 414 l 2,1,2
 221 436 221 436 241 436 c 0,3,4
 274 436 274 436 274 413 c 1,5,6
 274 414 274 414 264 354 c 0,7,8
 261 332 261 332 243 332 c 0,9,10
 224 332 224 332 221 360 c 0,11,12
 221 361 221 361 221 402 c 2,0,-1
145 355 m 2,13,-1
 145 399 l 2,14,15
 145 426 145 426 152.5 431.5 c 128,-1,16
 160 437 160 437 176 437 c 0,17,18
 195 437 195 437 195 415 c 0,19,20
 195 395 195 395 189 353 c 0,21,22
 186 334 186 334 166 334 c 0,23,24
 145 334 145 334 145 355 c 2,13,-1
EndSplineSet
EndChar

StartChar: numbersign
Encoding: 35 35 6
Width: 410
VWidth: 1210
Flags: W
LayerCount: 2
Fore
SplineSet
207 370 m 1,0,1
 213 366 213 366 217 366 c 0,2,3
 220 366 220 366 234 372 c 1,4,-1
 233 376 l 2,5,6
 232 391 232 391 239 408 c 0,7,8
 247 429 247 429 261 429 c 0,9,10
 280 429 280 429 280 409 c 0,11,12
 280 402 280 402 276 389 c 128,-1,13
 272 376 272 376 271 370 c 1,14,15
 283 364 283 364 283 353 c 0,16,17
 283 334 283 334 264 333 c 1,18,19
 264 325 264 325 260.5 316 c 128,-1,20
 257 307 257 307 256 304 c 1,21,22
 277 305 277 305 277 284 c 0,23,24
 277 265 277 265 257 265 c 0,25,26
 254 265 254 265 247 267 c 1,27,-1
 246 265 l 1,28,-1
 246 259 l 2,29,30
 247 245 247 245 240 228 c 0,31,32
 233 206 233 206 219 206 c 0,33,34
 199 206 199 206 199 227 c 0,35,36
 199 244 199 244 211 266 c 1,37,38
 203 270 203 270 199 270 c 0,39,40
 196 270 196 270 185 266 c 1,41,-1
 186 263 l 2,42,43
 186 260 186 260 186 258 c 0,44,45
 186 242 186 242 180 226 c 0,46,47
 172 206 172 206 159 206 c 0,48,49
 139 206 139 206 139 227 c 0,50,51
 139 235 139 235 143.5 248.5 c 128,-1,52
 148 262 148 262 149 266 c 0,53,54
 138 272 138 272 138 284 c 0,55,56
 138 303 138 303 156 304 c 1,57,58
 156 312 156 312 160 320.5 c 128,-1,59
 164 329 164 329 165 332 c 1,60,-1
 163 332 l 2,61,62
 142 332 142 332 142 353 c 256,63,64
 142 374 142 374 163 374 c 0,65,66
 167 374 167 374 173 372 c 1,67,68
 172 374 172 374 172 377 c 0,69,70
 172 391 172 391 179 408 c 0,71,72
 187 429 187 429 200 429 c 0,73,74
 220 429 220 429 220 408 c 0,75,76
 220 394 220 394 207 370 c 1,0,1
218 305 m 2,77,78
 218 312 218 312 223 321.5 c 128,-1,79
 228 331 228 331 228 331 c 2,80,81
 228 334 228 334 222.5 338 c 128,-1,82
 217 342 217 342 214 342 c 0,83,84
 209 342 209 342 202 335 c 1,85,-1
 203 330 l 2,86,87
 203 323 203 323 197 313.5 c 128,-1,88
 191 304 191 304 191 305 c 1,89,90
 191 297 191 297 200 297 c 0,91,92
 201 297 201 297 218 303 c 1,93,-1
 218 305 l 2,77,78
EndSplineSet
EndChar

StartChar: dollar
Encoding: 36 36 7
Width: 410
VWidth: 1210
Flags: W
LayerCount: 2
Fore
SplineSet
227 359 m 0,0,1
 226 343 226 343 226 343 c 1,2,-1
 227 338 l 1,3,4
 280 318 280 318 280 277 c 0,5,6
 280 232 280 232 226 219 c 1,7,8
 220 204 220 204 205 204 c 256,9,10
 190 204 190 204 185 220 c 1,11,12
 130 229 130 229 130 262 c 0,13,14
 130 283 130 283 152 283 c 0,15,16
 160 283 160 283 169.5 273.5 c 128,-1,17
 179 264 179 264 186 262 c 1,18,19
 185 264 185 264 184 269 c 0,20,21
 184 280 184 280 184 301 c 2,22,-1
 184 304 l 1,23,24
 131 322 131 322 131 359 c 0,25,26
 131 403 131 403 184 415 c 1,27,28
 189 430 189 430 205 430 c 0,29,30
 220 430 220 430 225 414 c 1,31,32
 242 411 242 411 257 401 c 0,33,34
 275 388 275 388 275 373 c 0,35,36
 275 351 275 351 252 351 c 0,37,38
 244 351 244 351 238 359 c 0,39,40
 227 371 227 371 226 372 c 1,41,42
 228 366 228 366 227 359 c 0,0,1
187 373 m 1,43,44
 174 366 174 366 174 360 c 256,45,46
 174 354 174 354 182 350 c 1,47,48
 182 351 182 351 182 353 c 1,49,50
 182 345 182 345 187 373 c 1,43,44
227 291 m 1,51,52
 227 287 227 287 227 285 c 0,53,54
 227 281 227 281 225.5 273.5 c 128,-1,55
 224 266 224 266 224 263 c 1,56,57
 237 269 237 269 237 277 c 0,58,59
 237 284 237 284 227 291 c 1,51,52
EndSplineSet
EndChar

StartChar: percent
Encoding: 37 37 8
Width: 410
VWidth: 1210
Flags: W
LayerCount: 2
Fore
SplineSet
171 383 m 256,0,1
 171 378 171 378 172 377 c 0,2,3
 174 378 174 378 174 383 c 0,4,5
 174 387 174 387 172 388 c 0,6,7
 171 388 171 388 171 383 c 256,0,1
196 251 m 0,8,9
 196 258 196 258 197 264 c 1,10,11
 174 227 174 227 167.5 216.5 c 128,-1,12
 161 206 161 206 150 206 c 0,13,14
 130 206 130 206 130 227 c 0,15,16
 130 234 130 234 197 344 c 1,17,18
 186 336 186 336 172 336 c 0,19,20
 132 336 132 336 132 383 c 0,21,22
 132 401 132 401 143 415 c 128,-1,23
 154 429 154 429 172 429 c 0,24,25
 191 429 191 429 202.5 415.5 c 128,-1,26
 214 402 214 402 214 383 c 0,27,28
 214 377 214 377 213 372 c 1,29,30
 244 427 244 427 259 427 c 0,31,32
 280 427 280 427 280 406 c 0,33,34
 280 401 280 401 211 287 c 1,35,36
 222 296 222 296 236 296 c 0,37,38
 255 296 255 296 266.5 283 c 128,-1,39
 278 270 278 270 278 251 c 0,40,41
 278 233 278 233 266.5 219 c 128,-1,42
 255 205 255 205 236 205 c 0,43,44
 196 205 196 205 196 251 c 0,8,9
236 251 m 256,45,46
 236 247 236 247 237 245 c 1,47,48
 238 246 238 246 238 251 c 0,49,50
 238 255 238 255 237 256 c 1,51,52
 236 255 236 255 236 251 c 256,45,46
EndSplineSet
EndChar

StartChar: ampersand
Encoding: 38 38 9
Width: 410
VWidth: 1210
Flags: W
LayerCount: 2
Fore
SplineSet
267 244 m 1,0,1
 275 235 275 235 275 228 c 0,2,3
 275 207 275 207 252 207 c 0,4,5
 242 207 242 207 235 214 c 1,6,7
 214 205 214 205 198 205 c 0,8,9
 168 205 168 205 149.5 223 c 128,-1,10
 131 241 131 241 131 271 c 0,11,12
 131 303 131 303 155 327 c 1,13,14
 139 348 139 348 139 375 c 0,15,16
 139 401 139 401 156 416.5 c 128,-1,17
 173 432 173 432 199 432 c 0,18,19
 222 432 222 432 239.5 419 c 128,-1,20
 257 406 257 406 257 383 c 0,21,22
 257 351 257 351 213 318 c 0,23,24
 214 316 214 316 218 313 c 0,25,26
 224 303 224 303 236 285 c 1,27,28
 240 308 240 308 240 309 c 0,29,30
 245 320 245 320 259 320 c 0,31,32
 280 320 280 320 280 298 c 0,33,34
 280 269 280 269 267 244 c 1,0,1
182 374 m 0,35,36
 182 365 182 365 189 354 c 1,37,38
 208 370 208 370 213 382 c 0,39,40
 213 388 213 388 199 388 c 0,41,42
 182 388 182 388 182 374 c 0,35,36
174 270 m 0,43,44
 174 249 174 249 199 249 c 0,45,46
 204 249 204 249 209 251 c 1,47,48
 208 252 208 252 205 256 c 2,49,-1
 200 262 l 2,50,51
 194 272 194 272 182 292 c 1,52,53
 174 283 174 283 174 270 c 0,43,44
EndSplineSet
EndChar

StartChar: quotesingle
Encoding: 39 39 10
Width: 410
VWidth: 1210
Flags: W
LayerCount: 2
Fore
SplineSet
208 315 m 0,0,1
 180 315 180 315 178 338 c 0,2,3
 172 396 172 396 172 413 c 0,4,5
 172 436 172 436 197 436 c 0,6,7
 218 436 218 436 224 433 c 0,8,9
 236 428 236 428 236 410 c 0,10,11
 236 400 236 400 234 380.5 c 128,-1,12
 232 361 232 361 232 351 c 0,13,14
 232 315 232 315 208 315 c 0,0,1
EndSplineSet
EndChar

StartChar: parenleft
Encoding: 40 40 11
Width: 410
VWidth: 1210
Flags: W
LayerCount: 2
Fore
SplineSet
214 415 m 0,0,1
 234 433 234 433 244 433 c 0,2,3
 264 433 264 433 264 412 c 0,4,5
 264 405 264 405 239.5 378.5 c 128,-1,6
 215 352 215 352 215 325 c 0,7,8
 215 292 215 292 225 275 c 0,9,10
 231 264 231 264 257 239 c 0,11,12
 265 231 265 231 265 222 c 0,13,14
 265 203 265 203 244 203 c 0,15,16
 236 203 236 203 229 207 c 0,17,18
 169 249 169 249 169 318 c 0,19,20
 169 375 169 375 214 415 c 0,0,1
EndSplineSet
EndChar

StartChar: parenright
Encoding: 41 41 12
Width: 410
VWidth: 1210
Flags: W
LayerCount: 2
Fore
SplineSet
145 223 m 0,0,1
 145 227 145 227 170.5 255 c 128,-1,2
 196 283 196 283 196 316 c 0,3,4
 196 343 196 343 184 361 c 0,5,6
 183 362 183 362 153 393 c 0,7,8
 144 402 144 402 144 410 c 0,9,10
 144 432 144 432 168 432 c 0,11,12
 179 432 179 432 202 408 c 0,13,14
 222 386 222 386 228 373 c 0,15,16
 240 348 240 348 240 316 c 0,17,18
 240 286 240 286 223.5 254 c 128,-1,19
 207 222 207 222 183 208 c 0,20,21
 171 201 171 201 167 201 c 0,22,23
 145 201 145 201 145 223 c 0,0,1
EndSplineSet
EndChar

StartChar: asterisk
Encoding: 42 42 13
Width: 410
VWidth: 1210
Flags: W
LayerCount: 2
Fore
SplineSet
130 335 m 0,0,1
 130 356 130 356 151 356 c 0,2,3
 159 356 159 356 169.5 349.5 c 128,-1,4
 180 343 180 343 182 343 c 256,5,6
 184 343 184 343 187 344 c 0,7,8
 183 357 183 357 183 376 c 0,9,10
 183 398 183 398 205 398 c 0,11,12
 221 398 221 398 225 382 c 0,13,14
 227 376 227 376 227 353 c 0,15,16
 227 349 227 349 225 344 c 1,17,18
 230 344 230 344 240.5 350 c 128,-1,19
 251 356 251 356 258 356 c 0,20,21
 280 356 280 356 280 336 c 0,22,23
 280 313 280 313 240 313 c 0,24,25
 235 313 235 313 235 306 c 0,26,27
 235 302 235 302 243 296 c 2,28,-1
 247 293 l 2,29,30
 261 283 261 283 261 270 c 0,31,32
 261 249 261 249 240 249 c 0,33,34
 224 249 224 249 217 268 c 2,35,-1
 215 275 l 2,36,37
 211 286 211 286 205 286 c 0,38,39
 200 286 200 286 196 275 c 2,40,-1
 194 268 l 2,41,42
 187 249 187 249 170 249 c 0,43,44
 148 249 148 249 148 271 c 0,45,46
 148 287 148 287 174 309 c 1,47,48
 160 312 160 312 145 315.5 c 128,-1,49
 130 319 130 319 130 335 c 0,0,1
EndSplineSet
EndChar

StartChar: plus
Encoding: 43 43 14
Width: 410
VWidth: 1210
Flags: W
LayerCount: 2
Fore
SplineSet
231 302 m 0,0,1
 221 302 221 302 221 294 c 0,2,3
 221 292 221 292 222 288 c 2,4,-1
 224 279 l 2,5,6
 227 265 227 265 227 257 c 0,7,8
 227 235 227 235 205 235 c 0,9,10
 181 235 181 235 182 274 c 0,11,12
 182 283 182 283 185 299 c 1,13,14
 181 299 181 299 169.5 297 c 128,-1,15
 158 295 158 295 151 295 c 0,16,17
 131 295 131 295 131 318 c 0,18,19
 131 339 131 339 175 339 c 0,20,21
 179 339 179 339 186 337 c 0,22,23
 187 340 187 340 187 342 c 0,24,25
 187 346 187 346 185.5 352 c 128,-1,26
 184 358 184 358 184 362 c 2,27,-1
 184 378 l 2,28,29
 184 400 184 400 205 400 c 0,30,31
 227 400 227 400 227 346 c 0,32,33
 227 342 227 342 225 337 c 1,34,35
 229 336 229 336 232 336 c 0,36,37
 236 336 236 336 245 337.5 c 128,-1,38
 254 339 254 339 258 339 c 0,39,40
 279 339 279 339 279 318 c 0,41,42
 279 296 279 296 258 296 c 0,43,44
 253 296 253 296 244 299 c 128,-1,45
 235 302 235 302 231 302 c 0,0,1
EndSplineSet
EndChar

StartChar: comma
Encoding: 44 44 15
Width: 410
VWidth: 1210
Flags: W
LayerCount: 2
Fore
SplineSet
143 171 m 0,0,1
 143 173 143 173 176 242 c 0,2,3
 185 261 185 261 197 261 c 0,4,5
 248 261 248 261 248 239 c 0,6,7
 248 229 248 229 217.5 189 c 128,-1,8
 187 149 187 149 176 149 c 0,9,10
 143 149 143 149 143 171 c 0,0,1
EndSplineSet
EndChar

StartChar: hyphen
Encoding: 45 45 16
AltUni2: 002010.ffffffff.0
Width: 410
VWidth: 1210
Flags: W
LayerCount: 2
Fore
SplineSet
261 294 m 0,0,1
 252 291 252 291 228 291 c 0,2,3
 215 291 215 291 190 292 c 0,4,5
 164 292 164 292 152 292 c 0,6,7
 129 292 129 292 129 319 c 0,8,9
 129 342 129 342 152 342 c 0,10,11
 169 342 169 342 205 342 c 0,12,13
 240 343 240 343 258 343 c 0,14,15
 281 343 281 343 281 319 c 0,16,17
 281 300 281 300 261 294 c 0,0,1
EndSplineSet
EndChar

StartChar: period
Encoding: 46 46 17
Width: 410
VWidth: 1210
Flags: W
LayerCount: 2
Fore
SplineSet
206 200 m 0,0,1
 164 199 164 199 164 223 c 2,2,-1
 164 230 l 2,3,4
 164 272 164 272 186 272 c 0,5,6
 220 272 220 272 222 271 c 0,7,8
 245 268 245 268 245 249 c 0,9,10
 245 200 245 200 222 200 c 1,11,12
 230 200 230 200 206 200 c 0,0,1
EndSplineSet
EndChar

StartChar: slash
Encoding: 47 47 18
Width: 410
VWidth: 1210
Flags: W
LayerCount: 2
Fore
SplineSet
145 227 m 0,0,1
 145 232 145 232 180 318 c 0,2,3
 213 398 213 398 222 417 c 0,4,5
 228 430 228 430 241 430 c 0,6,7
 264 430 264 430 264 409 c 0,8,9
 264 400 264 400 188 217 c 0,10,11
 182 203 182 203 167 203 c 0,12,13
 145 203 145 203 145 227 c 0,0,1
EndSplineSet
EndChar

StartChar: zero
Encoding: 48 48 19
Width: 410
VWidth: 1210
Flags: W
LayerCount: 2
Fore
SplineSet
131 318 m 0,0,1
 131 430 131 430 191 430 c 0,2,3
 194 430 194 430 201 431 c 0,4,5
 209 431 209 431 213 431 c 0,6,7
 226 431 226 431 234 429 c 0,8,9
 281 419 281 419 281 318 c 0,10,11
 281 205 281 205 213 205 c 0,12,13
 210 205 210 205 205 205 c 0,14,15
 200 204 200 204 197 204 c 0,16,17
 155 204 155 204 140 244 c 0,18,19
 131 268 131 268 131 318 c 0,0,1
190 388 m 2,20,21
 174 388 174 388 174 331 c 2,22,-1
 174 314 l 2,23,24
 174 248 174 248 190 248 c 2,25,-1
 220 249 l 2,26,27
 236 249 236 249 236 335 c 0,28,29
 236 388 236 388 220 388 c 2,30,-1
 190 388 l 2,20,21
EndSplineSet
EndChar

StartChar: one
Encoding: 49 49 20
Width: 410
VWidth: 1210
Flags: W
LayerCount: 2
Fore
SplineSet
192 370 m 1,0,1
 170 346 170 346 157 346 c 0,2,3
 138 346 138 346 138 369 c 0,4,5
 138 380 138 380 167.5 405 c 128,-1,6
 197 430 197 430 209 430 c 0,7,8
 234 430 234 430 234 411 c 128,-1,9
 234 392 234 392 235 353 c 0,10,11
 235 315 235 315 235 295 c 0,12,13
 235 284 235 284 235 261 c 128,-1,14
 235 238 235 238 235 227 c 0,15,16
 235 205 235 205 212 205 c 0,17,18
 191 205 191 205 191 257 c 0,19,20
 191 260 191 260 191 285 c 0,21,22
 190 305 190 305 190 324 c 0,23,24
 190 355 190 355 192 370 c 1,0,1
EndSplineSet
EndChar

StartChar: two
Encoding: 50 50 21
Width: 410
VWidth: 1210
Flags: W
LayerCount: 2
Fore
SplineSet
176 207 m 2,0,1
 150 207 150 207 142.5 213.5 c 128,-1,2
 135 220 135 220 135 245 c 0,3,4
 135 280 135 280 162 305 c 0,5,6
 188 325 188 325 215 345 c 0,7,8
 229 357 229 357 229 367 c 0,9,10
 229 389 229 389 199 389 c 0,11,12
 187 389 187 389 173.5 382 c 128,-1,13
 160 375 160 375 155 375 c 0,14,15
 134 375 134 375 134 397 c 0,16,17
 134 413 134 413 161 423 c 0,18,19
 183 432 183 432 201 432 c 0,20,21
 231 432 231 432 250.5 414.5 c 128,-1,22
 270 397 270 397 270 367 c 0,23,24
 270 332 270 332 244 311 c 0,25,26
 218 294 218 294 193 277 c 0,27,28
 179 265 179 265 178 250 c 1,29,-1
 184 250 l 2,30,31
 192 249 192 249 207 250 c 0,32,33
 224 252 224 252 230 252 c 0,34,35
 272 252 272 252 272 229 c 0,36,37
 272 207 272 207 249 207 c 2,38,-1
 176 207 l 2,0,1
EndSplineSet
EndChar

StartChar: three
Encoding: 51 51 22
Width: 410
VWidth: 1210
Flags: W
LayerCount: 2
Fore
SplineSet
128 238 m 0,0,1
 128 259 128 259 150 259 c 0,2,3
 157 259 157 259 171 254 c 128,-1,4
 185 249 185 249 192 249 c 0,5,6
 208 249 208 249 220.5 258 c 128,-1,7
 233 267 233 267 233 281 c 0,8,9
 233 303 233 303 199.5 309.5 c 128,-1,10
 166 316 166 316 166 334 c 0,11,12
 166 345 166 345 170 350 c 0,13,14
 185 367 185 367 207 387 c 1,15,-1
 206 386 l 2,16,17
 201 385 201 385 196 385 c 0,18,19
 160 385 160 385 156 386 c 0,20,21
 129 390 129 390 129 408 c 0,22,23
 129 425 129 425 150 429 c 0,24,25
 154 430 154 430 183 430 c 0,26,27
 194 430 194 430 216 429 c 0,28,29
 238 429 238 429 248 429 c 0,30,31
 269 429 269 429 269 400 c 0,32,33
 269 385 269 385 227 350 c 1,34,35
 277 333 277 333 277 281 c 0,36,37
 277 248 277 248 251 227 c 128,-1,38
 225 206 225 206 192 206 c 0,39,40
 128 206 128 206 128 238 c 0,0,1
EndSplineSet
EndChar

StartChar: four
Encoding: 52 52 23
Width: 410
VWidth: 1210
Flags: W
LayerCount: 2
Fore
SplineSet
174 292 m 1,0,1
 178 292 178 292 185 293.5 c 128,-1,2
 192 295 192 295 195 295 c 0,3,4
 199 295 199 295 207 292 c 1,5,-1
 208 294 l 2,6,7
 208 297 208 297 208 298 c 0,8,9
 208 301 208 301 206.5 307 c 128,-1,10
 205 313 205 313 205 317 c 0,11,12
 205 338 205 338 227 338 c 256,13,14
 249 338 249 338 249 317 c 0,15,16
 249 313 249 313 247 306.5 c 128,-1,17
 245 300 245 300 245 296 c 0,18,19
 245 294 245 294 246 293 c 0,20,21
 252 295 252 295 256 295 c 0,22,23
 277 295 277 295 277 274 c 0,24,25
 277 251 277 251 256 251 c 0,26,27
 252 251 252 251 247 253 c 1,28,29
 246 249 246 249 246 247 c 0,30,31
 246 243 246 243 247 236.5 c 128,-1,32
 248 230 248 230 248 227 c 0,33,34
 248 205 248 205 227 205 c 256,35,36
 206 205 206 205 206 227 c 0,37,38
 206 231 206 231 208.5 238.5 c 128,-1,39
 211 246 211 246 211 250 c 0,40,41
 211 257 211 257 200 257 c 0,42,43
 196 257 196 257 187.5 254 c 128,-1,44
 179 251 179 251 174 251 c 0,45,46
 147 251 147 251 140 254 c 0,47,48
 125 260 125 260 125 283 c 0,49,50
 125 294 125 294 189 417 c 0,51,52
 195 429 195 429 207 429 c 0,53,54
 229 429 229 429 229 409 c 0,55,56
 229 401 229 401 206 353 c 0,57,58
 185 309 185 309 174 292 c 1,0,1
EndSplineSet
EndChar

StartChar: five
Encoding: 53 53 24
Width: 410
VWidth: 1210
Flags: W
LayerCount: 2
Fore
SplineSet
195 362 m 0,0,1
 224 362 224 362 247 344 c 128,-1,2
 270 326 270 326 270 298 c 0,3,4
 270 205 270 205 160 205 c 0,5,6
 139 205 139 205 139 227 c 0,7,8
 139 248 139 248 171 249 c 0,9,10
 208 251 208 251 222 272 c 0,11,12
 229 282 229 282 229 289 c 0,13,14
 229 318 229 318 188 319 c 0,15,16
 164 320 164 320 160 320 c 0,17,18
 144 324 144 324 144 338 c 0,19,20
 144 349 144 349 146 371 c 128,-1,21
 148 393 148 393 148 404 c 0,22,23
 148 428 148 428 167 428 c 0,24,25
 181 428 181 428 207 428 c 0,26,27
 234 427 234 427 247 427 c 0,28,29
 270 427 270 427 270 406 c 0,30,31
 270 389 270 389 245 385 c 0,32,33
 241 384 241 384 208 384 c 0,34,35
 204 384 204 384 197 386 c 2,36,-1
 193 388 l 2,37,38
 191 389 191 389 191 389 c 2,39,40
 183 389 183 389 183 375 c 0,41,42
 183 371 183 371 187 360 c 1,43,44
 191 362 191 362 195 362 c 0,0,1
EndSplineSet
EndChar

StartChar: six
Encoding: 54 54 25
Width: 410
VWidth: 1210
Flags: W
LayerCount: 2
Fore
SplineSet
130 287 m 0,0,1
 130 318 130 318 165 374.5 c 128,-1,2
 200 431 200 431 225 431 c 0,3,4
 246 431 246 431 246 410 c 0,5,6
 246 400 246 400 236.5 392 c 128,-1,7
 227 384 227 384 207 356 c 1,8,9
 238 355 238 355 260 335.5 c 128,-1,10
 282 316 282 316 282 284 c 0,11,12
 282 247 282 247 259.5 226.5 c 128,-1,13
 237 206 237 206 200 206 c 0,14,15
 168 206 168 206 149 230.5 c 128,-1,16
 130 255 130 255 130 287 c 0,0,1
174 284 m 0,17,18
 174 250 174 250 206 250 c 256,19,20
 238 250 238 250 238 281 c 0,21,22
 238 315 238 315 207 315 c 0,23,24
 174 315 174 315 174 284 c 0,17,18
EndSplineSet
EndChar

StartChar: seven
Encoding: 55 55 26
Width: 410
VWidth: 1210
Flags: W
LayerCount: 2
Fore
SplineSet
186 206 m 0,0,1
 169 206 169 206 165 222 c 0,2,3
 163 227 163 227 163 250 c 0,4,5
 163 289 163 289 185 323 c 0,6,7
 207 354 207 354 230 385 c 1,8,9
 216 385 216 385 192 384 c 0,10,11
 163 383 163 383 153 383 c 0,12,13
 131 383 131 383 131 405 c 0,14,15
 131 426 131 426 153 426 c 0,16,17
 171 426 171 426 206 426 c 0,18,19
 241 427 241 427 258 427 c 0,20,21
 281 427 281 427 281 396 c 0,22,23
 281 377 281 377 257 348 c 0,24,25
 228 314 228 314 224 308 c 0,26,27
 208 283 208 283 208 259 c 2,28,-1
 208 227 l 2,29,30
 209 206 209 206 186 206 c 0,0,1
EndSplineSet
EndChar

StartChar: eight
Encoding: 56 56 27
Width: 410
VWidth: 1210
Flags: W
LayerCount: 2
Fore
SplineSet
130 269 m 0,0,1
 130 305 130 305 161 328 c 1,2,3
 139 346 139 346 139 375 c 0,4,5
 139 401 139 401 160 417 c 0,6,7
 178 431 178 431 205 431 c 0,8,9
 231 431 231 431 251 415.5 c 128,-1,10
 271 400 271 400 271 375 c 0,11,12
 271 347 271 347 248 329 c 1,13,14
 281 306 281 306 281 269 c 0,15,16
 281 204 281 204 194 204 c 0,17,18
 167 204 167 204 148.5 223 c 128,-1,19
 130 242 130 242 130 269 c 0,0,1
183 374 m 256,20,21
 183 362 183 362 205 352 c 1,22,23
 228 362 228 362 228 374 c 256,24,25
 228 386 228 386 205 386 c 0,26,27
 183 386 183 386 183 374 c 256,20,21
173 270 m 0,28,29
 173 247 173 247 205 247 c 0,30,31
 236 247 236 247 236 270 c 0,32,33
 236 290 236 290 205 304 c 1,34,35
 173 290 173 290 173 270 c 0,28,29
EndSplineSet
EndChar

StartChar: nine
Encoding: 57 57 28
Width: 410
VWidth: 1210
Flags: W
LayerCount: 2
Fore
SplineSet
207 281 m 1,0,1
 175 281 175 281 154.5 301 c 128,-1,2
 134 321 134 321 134 353 c 0,3,4
 134 429 134 429 218 429 c 0,5,6
 252 429 252 429 269 400 c 0,7,8
 283 376 283 376 283 341 c 0,9,10
 283 314 283 314 247 260 c 128,-1,11
 211 206 211 206 189 206 c 0,12,13
 168 206 168 206 168 230 c 0,14,15
 168 234 168 234 207 281 c 1,0,1
176 356 m 0,16,17
 176 324 176 324 207 324 c 0,18,19
 241 324 241 324 241 354 c 0,20,21
 241 387 241 387 208 387 c 0,22,23
 176 387 176 387 176 356 c 0,16,17
EndSplineSet
EndChar

StartChar: colon
Encoding: 58 58 29
Width: 410
VWidth: 1210
Flags: W
LayerCount: 2
Fore
SplineSet
220 310 m 0,0,1
 183 310 183 310 177 314 c 0,2,3
 166 321 166 321 166 354 c 0,4,5
 166 377 166 377 189 377 c 0,6,7
 218 377 218 377 223 375 c 0,8,9
 243 371 243 371 243 354 c 0,10,11
 243 310 243 310 220 310 c 0,0,1
220 202 m 0,12,13
 184 202 184 202 177 207 c 0,14,15
 166 214 166 214 166 247 c 0,16,17
 166 264 166 264 187 268 c 0,18,19
 193 269 193 269 220 269 c 0,20,21
 243 269 243 269 243 247 c 0,22,23
 243 202 243 202 220 202 c 0,12,13
EndSplineSet
EndChar

StartChar: semicolon
Encoding: 59 59 30
Width: 410
VWidth: 1210
Flags: W
LayerCount: 2
Fore
SplineSet
229 309 m 0,0,1
 203 309 203 309 196 311 c 0,2,3
 177 315 177 315 177 332 c 0,4,5
 177 365 177 365 185 371 c 128,-1,6
 193 377 193 377 229 377 c 0,7,8
 252 377 252 377 252 354 c 0,9,10
 252 309 252 309 229 309 c 0,0,1
174 153 m 0,11,12
 139 153 139 153 139 176 c 0,13,14
 139 177 139 177 176 253 c 0,15,16
 185 273 185 273 197 273 c 0,17,18
 251 273 251 273 251 250 c 0,19,20
 251 240 251 240 218 196.5 c 128,-1,21
 185 153 185 153 174 153 c 0,11,12
EndSplineSet
EndChar

StartChar: less
Encoding: 60 60 31
Width: 410
VWidth: 1210
Flags: W
LayerCount: 2
Fore
SplineSet
188 316 m 1,0,-1
 199 310 l 2,1,2
 280 266 280 266 280 247 c 0,3,4
 280 224 280 224 257 224 c 0,5,6
 251 224 251 224 139 297 c 0,7,8
 128 304 128 304 128 317 c 0,9,10
 128 329 128 329 140 337 c 0,11,12
 162 353 162 353 199 374 c 0,13,14
 204 380 204 380 227.5 395 c 128,-1,15
 251 410 251 410 257 410 c 0,16,17
 280 410 280 410 280 388 c 0,18,19
 280 376 280 376 245 353 c 0,20,21
 225 338 225 338 187 316 c 1,22,-1
 188 316 l 1,0,-1
EndSplineSet
EndChar

StartChar: equal
Encoding: 61 61 32
Width: 410
VWidth: 1210
Flags: W
LayerCount: 2
Fore
SplineSet
232 335 m 0,0,1
 217 335 217 335 188 336 c 0,2,3
 159 336 159 336 145 336 c 0,4,5
 123 336 123 336 123 358 c 0,6,7
 123 382 123 382 145 382 c 0,8,9
 165 382 165 382 204 382 c 0,10,11
 244 381 244 381 265 381 c 128,-1,12
 286 381 286 381 286 358 c 256,13,14
 286 335 286 335 232 335 c 0,0,1
192 267 m 0,15,16
 188 267 188 267 179.5 268 c 128,-1,17
 171 269 171 269 167 269 c 256,18,19
 163 269 163 269 155.5 267.5 c 128,-1,20
 148 266 148 266 145 266 c 0,21,22
 121 266 121 266 121 290 c 256,23,24
 121 314 121 314 145 314 c 0,25,26
 165 314 165 314 204.5 312.5 c 128,-1,27
 244 311 244 311 264 311 c 0,28,29
 288 311 288 311 288 290 c 0,30,31
 288 272 288 272 267 268 c 0,32,33
 266 268 266 268 232 268 c 0,34,35
 225 268 225 268 212 267 c 0,36,37
 199 267 199 267 192 267 c 0,15,16
EndSplineSet
EndChar

StartChar: greater
Encoding: 62 62 33
Width: 410
VWidth: 1210
Flags: W
LayerCount: 2
Fore
SplineSet
178 344 m 0,0,1
 131 370 131 370 131 388 c 0,2,3
 131 410 131 410 153 410 c 0,4,5
 163 410 163 410 270 337 c 0,6,7
 281 329 281 329 281 317 c 256,8,9
 281 305 281 305 270 297 c 0,10,11
 164 224 164 224 153 224 c 0,12,13
 131 224 131 224 131 247 c 0,14,15
 131 260 131 260 139 266 c 0,16,17
 204 310 204 310 224 318 c 1,18,19
 208 326 208 326 178 344 c 0,0,1
EndSplineSet
EndChar

StartChar: question
Encoding: 63 63 34
Width: 410
VWidth: 1210
Flags: W
LayerCount: 2
Fore
SplineSet
231 299 m 1,0,1
 231 277 231 277 209 277 c 0,2,3
 188 277 188 277 188 304 c 0,4,5
 188 322 188 322 208.5 338.5 c 128,-1,6
 229 355 229 355 229 371 c 0,7,8
 229 386 229 386 205 386 c 0,9,10
 185 386 185 386 179.5 365.5 c 128,-1,11
 174 345 174 345 158 345 c 0,12,13
 136 345 136 345 136 367 c 0,14,15
 136 396 136 396 156 413.5 c 128,-1,16
 176 431 176 431 205 431 c 0,17,18
 273 431 273 431 273 370 c 0,19,20
 273 348 273 348 259 331.5 c 128,-1,21
 245 315 245 315 231 299 c 1,0,1
202 203 m 0,22,23
 180 203 180 203 180 239 c 0,24,25
 180 262 180 262 202 262 c 0,26,27
 230 262 230 262 235 248 c 0,28,29
 237 241 237 241 237 226 c 0,30,31
 237 203 237 203 202 203 c 0,22,23
EndSplineSet
EndChar

StartChar: at
Encoding: 64 64 35
Width: 410
VWidth: 1210
Flags: W
LayerCount: 2
Fore
SplineSet
287 255 m 2,0,1
 287 235 287 235 272.5 218 c 128,-1,2
 258 201 258 201 238 201 c 0,3,4
 224 201 224 201 210 212 c 1,5,6
 195 201 195 201 180 201 c 0,7,8
 155 201 155 201 141 225 c 0,9,10
 129 244 129 244 129 271 c 0,11,12
 129 343 129 343 178 343 c 0,13,14
 191 343 191 343 201 338 c 1,15,16
 207 342 207 342 214 342 c 0,17,18
 237 342 237 342 237 301 c 0,19,20
 237 291 237 291 235.5 275 c 128,-1,21
 234 259 234 259 234 254 c 0,22,23
 234 247 234 247 238 244 c 1,24,25
 247 252 247 252 247 331 c 0,26,27
 247 391 247 391 207 391 c 0,28,29
 179 391 179 391 171 372 c 128,-1,30
 163 353 163 353 151 353 c 0,31,32
 131 353 131 353 131 374 c 0,33,34
 131 402 131 402 156 418 c 0,35,36
 177 431 177 431 207 431 c 0,37,38
 243 431 243 431 265 405 c 128,-1,39
 287 379 287 379 287 341 c 2,40,-1
 287 255 l 2,0,1
  Spiro
    287 255 ]
    283.375 235.75 o
    272.5 218 o
    256.625 205.25 o
    238 201 o
    224 203.75 o
    210 212 v
    195 203.75 o
    180 201 o
    157.75 207 o
    141 225 o
    132 246 o
    129 271 o
    141.25 325 o
    178 343 o
    190.25 341.75 o
    201 338 v
    207.25 341 o
    214 342 o
    231.25 331.75 o
    237 301 o
    236.625 289.5 o
    235.5 275 o
    234.375 261.75 o
    234 254 o
    235 248 o
    238 244 v
    244.75 269.75 o
    247 331 o
    237 376 o
    207 391 o
    184 386.25 o
    171 372 o
    162 357.75 o
    151 353 o
    136 358.25 o
    131 374 o
    137.25 399 o
    156 418 o
    179.25 427.75 o
    207 431 o
    239.5 424.5 o
    265 405 o
    281.5 376 o
    287 341 [
    0 0 z
  EndSpiro
181 302 m 0,41,42
 170 302 170 302 170 273 c 256,43,44
 170 244 170 244 181 244 c 0,45,46
 185 244 185 244 193 253 c 1,47,48
 196 270 196 270 194 291 c 2,49,-1
 194 294 l 1,50,51
 187 302 187 302 181 302 c 0,41,42
  Spiro
    181 302 o
    172.75 294.75 o
    170 273 o
    172.75 251.25 o
    181 244 o
    186 246.25 o
    193 253 v
    194.75 271 o
    194 291 [
    194 294 v
    187.25 300 o
    0 0 z
  EndSpiro
EndSplineSet
EndChar

StartChar: A
Encoding: 65 65 36
Width: 410
VWidth: 1210
Flags: W
LayerCount: 2
Fore
SplineSet
262 203 m 0,0,1
 243 203 243 203 238 229 c 0,2,3
 231 263 231 263 228 267 c 1,4,-1
 224 267 l 2,5,6
 218 264 218 264 211 264 c 0,7,8
 207 264 207 264 199.5 265.5 c 128,-1,9
 192 267 192 267 188 267 c 0,10,11
 185 267 185 267 179 264 c 1,12,-1
 180 261 l 1,13,14
 180 243 180 243 172 225 c 0,15,16
 163 202 163 202 148 202 c 0,17,18
 126 202 126 202 126 225 c 0,19,20
 126 239 126 239 172 410 c 0,21,22
 178 431 178 431 191 431 c 0,23,24
 195 431 195 431 204.5 430 c 128,-1,25
 214 429 214 429 219 429 c 0,26,27
 230 429 230 429 236 409 c 0,28,29
 284 238 284 238 284 225 c 0,30,31
 284 203 284 203 262 203 c 0,0,1
205 355 m 1,32,33
 202 343 202 343 199.5 332 c 128,-1,34
 197 321 197 321 187 309 c 1,35,-1
 187 306 l 1,36,37
 195 301 195 301 199 301 c 0,38,39
 202 301 202 301 219 308 c 1,40,41
 213 315 213 315 210 329 c 128,-1,42
 207 343 207 343 205 355 c 1,32,33
EndSplineSet
EndChar

StartChar: B
Encoding: 66 66 37
Width: 410
VWidth: 1210
Flags: W
LayerCount: 2
Fore
SplineSet
145 206 m 0,0,1
 125 206 125 206 121 232 c 0,2,3
 121 235 121 235 121 274 c 0,4,5
 121 295 121 295 121 338 c 0,6,7
 122 381 122 381 122 404.5 c 128,-1,8
 122 428 122 428 145 428 c 0,9,10
 212 428 212 428 230 423 c 0,11,12
 278 411 278 411 278 364 c 0,13,14
 278 337 278 337 263 322 c 1,15,16
 284 302 284 302 284 278 c 0,17,18
 284 226 284 226 236 212 c 0,19,20
 215 206 215 206 145 206 c 0,0,1
165 341 m 1,21,22
 170 342 170 342 181 342 c 2,23,-1
 190 342 l 2,24,25
 235 342 235 342 235 363 c 0,26,27
 235 383 235 383 194 383 c 0,28,29
 190 383 190 383 182.5 385 c 128,-1,30
 175 387 175 387 171 387 c 256,31,32
 167 387 167 387 162 384 c 1,33,34
 166 367 166 367 166 365 c 0,35,36
 166 362 166 362 165 356 c 128,-1,37
 164 350 164 350 164 347 c 0,38,39
 164 345 164 345 165 341 c 1,21,22
194 300 m 0,40,41
 190 300 190 300 182.5 302.5 c 128,-1,42
 175 305 175 305 171 305 c 0,43,44
 161 305 161 305 161 296 c 0,45,46
 161 293 161 293 163 286.5 c 128,-1,47
 165 280 165 280 165 277 c 256,48,49
 165 274 165 274 164 268 c 128,-1,50
 163 262 163 262 163 259 c 0,51,52
 163 253 163 253 164 249 c 1,53,54
 165 250 165 250 209 252 c 0,55,56
 239 254 239 254 239 276 c 0,57,58
 239 300 239 300 194 300 c 0,40,41
EndSplineSet
EndChar

StartChar: C
Encoding: 67 67 38
Width: 410
VWidth: 1210
Flags: W
LayerCount: 2
Fore
SplineSet
209 202 m 0,0,1
 172 202 172 202 151 236 c 0,2,3
 134 265 134 265 134 304 c 0,4,5
 134 431 134 431 209 431 c 0,6,7
 229 431 229 431 248.5 417 c 128,-1,8
 268 403 268 403 268 383 c 0,9,10
 268 362 268 362 247 362 c 0,11,12
 234 362 234 362 227 374.5 c 128,-1,13
 220 387 220 387 211 387 c 0,14,15
 196 387 196 387 187 369.5 c 128,-1,16
 178 352 178 352 178 334 c 0,17,18
 178 247 178 247 211 247 c 0,19,20
 220 247 220 247 226.5 259.5 c 128,-1,21
 233 272 233 272 247 272 c 0,22,23
 268 272 268 272 268 250 c 0,24,25
 268 231 268 231 248.5 216.5 c 128,-1,26
 229 202 229 202 209 202 c 0,0,1
EndSplineSet
EndChar

StartChar: D
Encoding: 68 68 39
Width: 410
VWidth: 1210
Flags: W
LayerCount: 2
Fore
SplineSet
168 206 m 0,0,1
 144 206 144 206 144 231 c 0,2,3
 144 249 144 249 144 285 c 0,4,5
 143 321 143 321 143 339 c 0,6,7
 143 344 143 344 144 354 c 0,8,9
 144 364 144 364 144 369.5 c 128,-1,10
 144 375 144 375 144 385 c 0,11,12
 143 396 143 396 143 400 c 0,13,14
 143 428 143 428 180 428 c 256,15,16
 217 428 217 428 246.5 400 c 128,-1,17
 276 372 276 372 278 335 c 0,18,19
 278 321 278 321 278 305 c 0,20,21
 278 261 278 261 245 233.5 c 128,-1,22
 212 206 212 206 168 206 c 0,0,1
182 383 m 1,23,24
 185 373 185 373 185 347 c 0,25,26
 185 336 185 336 183 300 c 0,27,28
 182 271 182 271 183 254 c 2,29,-1
 183 251 l 1,30,31
 207 254 207 254 221.5 273 c 128,-1,32
 236 292 236 292 236 317 c 0,33,34
 236 378 236 378 182 383 c 1,23,24
EndSplineSet
EndChar

StartChar: E
Encoding: 69 69 40
Width: 410
VWidth: 1210
Flags: W
LayerCount: 2
Fore
SplineSet
179 248 m 0,0,1
 188 251 188 251 193 251 c 0,2,3
 199 251 199 251 210 251 c 0,4,5
 222 250 222 250 228 250 c 0,6,7
 262 250 262 250 260 250 c 1,8,9
 279 247 279 247 279 229 c 0,10,11
 279 206 279 206 256 206 c 0,12,13
 240 206 240 206 208 206 c 0,14,15
 176 207 176 207 158 207 c 128,-1,16
 140 207 140 207 135 232 c 0,17,18
 135 237 135 237 135 274 c 2,19,-1
 135 403 l 2,20,21
 135 426 135 426 159 426 c 0,22,23
 169 426 169 426 187 427 c 128,-1,24
 205 428 205 428 215 428 c 0,25,26
 250 428 250 428 252 427 c 0,27,28
 275 424 275 424 275 405 c 0,29,30
 275 383 275 383 253 383 c 0,31,32
 242 383 242 383 219 384.5 c 128,-1,33
 196 386 196 386 185 386 c 0,34,35
 181 386 181 386 177 384 c 1,36,-1
 177 384 l 1,37,38
 180 381 180 381 180 370 c 0,39,40
 180 366 180 366 177.5 358 c 128,-1,41
 175 350 175 350 175 346 c 0,42,43
 175 338 175 338 180 338 c 2,44,45
 180 338 180 338 187.5 340.5 c 128,-1,46
 195 343 195 343 199 343 c 0,47,48
 240 343 240 343 239 343 c 1,49,50
 265 339 265 339 265 321 c 0,51,52
 265 297 265 297 243 298 c 2,53,-1
 216 298 l 2,54,55
 211 298 211 298 201.5 300.5 c 128,-1,56
 192 303 192 303 187 303 c 0,57,58
 183 303 183 303 177 299 c 2,59,-1
 175 296 l 1,60,61
 181 282 181 282 181 276 c 0,62,63
 181 272 181 272 178.5 265 c 128,-1,64
 176 258 176 258 176 254 c 0,65,66
 176 251 176 251 179 248 c 0,0,1
EndSplineSet
EndChar

StartChar: F
Encoding: 70 70 41
Width: 410
VWidth: 1210
Flags: W
LayerCount: 2
Fore
SplineSet
256 383 m 0,0,1
 208 383 208 383 196 387 c 1,2,3
 193 382 193 382 193 379 c 0,4,5
 193 375 193 375 195.5 367.5 c 128,-1,6
 198 360 198 360 198 355 c 0,7,8
 198 352 198 352 194 341 c 1,9,10
 203 340 203 340 203 340 c 2,11,12
 207 340 207 340 214.5 342 c 128,-1,13
 222 344 222 344 226 344 c 0,14,15
 264 344 264 344 264 321 c 0,16,17
 264 299 264 299 243 299 c 0,18,19
 208 299 208 299 196 302 c 1,20,-1
 195 292 l 2,21,22
 195 283 195 283 197 266 c 128,-1,23
 199 249 199 249 199 241 c 0,24,25
 199 202 199 202 176 202 c 0,26,27
 155 202 155 202 155 225 c 0,28,29
 155 254 155 254 154 313.5 c 128,-1,30
 153 373 153 373 153 403 c 0,31,32
 153 424 153 424 172 427 c 1,33,34
 168 426 168 426 207 426 c 0,35,36
 215 426 215 426 231.5 427 c 128,-1,37
 248 428 248 428 256 428 c 0,38,39
 278 428 278 428 278 405 c 0,40,41
 278 383 278 383 256 383 c 0,0,1
EndSplineSet
EndChar

StartChar: G
Encoding: 71 71 42
Width: 410
VWidth: 1210
Flags: W
LayerCount: 2
Fore
SplineSet
211 205 m 0,0,1
 169 205 169 205 147 243 c 0,2,3
 128 274 128 274 128 318 c 0,4,5
 128 364 128 364 146 394 c 0,6,7
 168 432 168 432 211 432 c 0,8,9
 234 432 234 432 255 422 c 0,10,11
 281 410 281 410 281 390 c 0,12,13
 281 368 281 368 260 368 c 0,14,15
 251 368 251 368 240.5 378 c 128,-1,16
 230 388 230 388 214 388 c 0,17,18
 173 388 173 388 173 314 c 0,19,20
 173 249 173 249 214 249 c 0,21,22
 230 249 230 249 240 254 c 1,23,24
 239 252 239 252 239 273 c 0,25,26
 239 276 239 276 241 281.5 c 128,-1,27
 243 287 243 287 243 289 c 0,28,29
 243 295 243 295 234 295 c 0,30,31
 231 295 231 295 224 293 c 128,-1,32
 217 291 217 291 213 291 c 0,33,34
 191 291 191 291 191 312 c 0,35,36
 191 335 191 335 233 335 c 0,37,38
 283 335 283 335 283 309 c 2,39,-1
 283 245 l 2,40,41
 283 205 283 205 211 205 c 0,0,1
EndSplineSet
EndChar

StartChar: H
Encoding: 72 72 43
Width: 410
VWidth: 1210
Flags: W
LayerCount: 2
Fore
SplineSet
277 303 m 2,0,1
 277 292 277 292 277 264 c 0,2,3
 276 240 276 240 276 226 c 0,4,5
 276 203 276 203 255 203 c 0,6,7
 232 203 232 203 232 226 c 2,8,-1
 232 290 l 2,9,10
 232 295 232 295 235 302 c 1,11,12
 229 304 229 304 224 304 c 0,13,14
 220 304 220 304 211 302.5 c 128,-1,15
 202 301 202 301 197 301 c 0,16,17
 194 301 194 301 187.5 303 c 128,-1,18
 181 305 181 305 178 305 c 0,19,20
 172 305 172 305 172 299 c 0,21,22
 172 297 172 297 174.5 290 c 128,-1,23
 177 283 177 283 177 279 c 0,24,25
 177 236 177 236 177 233 c 0,26,27
 173 202 173 202 154 202 c 0,28,29
 132 202 132 202 132 226 c 2,30,-1
 132 408 l 2,31,32
 132 430 132 430 154 430 c 0,33,34
 178 430 178 430 178 408 c 0,35,36
 178 359 178 359 173 346 c 1,37,38
 181 340 181 340 185 340 c 0,39,40
 190 340 190 340 199 342.5 c 128,-1,41
 208 345 208 345 213 345 c 0,42,43
 217 345 217 345 232 340 c 1,44,-1
 234 341 l 1,45,46
 238 348 238 348 238 352 c 0,47,48
 238 357 238 357 235.5 366.5 c 128,-1,49
 233 376 233 376 233 381 c 0,50,51
 233 408 233 408 234 412 c 0,52,53
 238 430 238 430 255 430 c 0,54,55
 273 430 273 430 277 409 c 0,56,57
 278 403 278 403 278 375 c 2,58,-1
 277 303 l 2,0,1
EndSplineSet
EndChar

StartChar: I
Encoding: 73 73 44
Width: 410
VWidth: 1210
Flags: W
LayerCount: 2
Fore
SplineSet
224 248 m 0,0,1
 226 247 226 247 228 247 c 0,2,3
 231 247 231 247 237 248.5 c 128,-1,4
 243 250 243 250 246 250 c 0,5,6
 268 250 268 250 268 229 c 256,7,8
 268 208 268 208 233 205 c 1,9,10
 238 206 238 206 181 206 c 0,11,12
 142 206 142 206 142 229 c 0,13,14
 142 250 142 250 164 250 c 0,15,16
 168 250 168 250 182 245 c 1,17,-1
 185 247 l 2,18,19
 188 252 188 252 188 256 c 256,20,21
 188 260 188 260 186 268.5 c 128,-1,22
 184 277 184 277 184 281 c 0,23,24
 184 292 184 292 183 313.5 c 128,-1,25
 182 335 182 335 182 346 c 0,26,27
 182 368 182 368 186 384 c 1,28,-1
 184 386 l 1,29,30
 175 383 175 383 170 383 c 0,31,32
 149 383 149 383 149 405 c 0,33,34
 149 428 149 428 170 428 c 2,35,-1
 239 427 l 2,36,37
 262 427 262 427 262 405 c 256,38,39
 262 383 262 383 239 383 c 0,40,41
 236 383 236 383 225 387 c 1,42,43
 224 377 224 377 224 377 c 2,44,45
 224 373 224 373 226 365 c 128,-1,46
 228 357 228 357 228 352 c 0,47,48
 228 257 228 257 224 248 c 0,0,1
EndSplineSet
EndChar

StartChar: J
Encoding: 74 74 45
Width: 410
VWidth: 1210
Flags: W
LayerCount: 2
Fore
SplineSet
252 302 m 2,0,1
 252 262 252 262 250 252 c 0,2,3
 245 225 245 225 223 213 c 0,4,5
 207 204 207 204 194 204 c 0,6,7
 132 204 132 204 132 273 c 0,8,9
 132 296 132 296 154 296 c 0,10,11
 172 296 172 296 176 272.5 c 128,-1,12
 180 249 180 249 193 249 c 0,13,14
 207 249 207 249 207 270 c 0,15,16
 207 370 207 370 208 374 c 0,17,18
 206 378 206 378 206 409 c 0,19,20
 206 431 206 431 229 431 c 0,21,22
 248 431 248 431 252 408 c 0,23,24
 253 403 253 403 253 370 c 2,25,-1
 252 302 l 2,0,1
EndSplineSet
EndChar

StartChar: K
Encoding: 75 75 46
Width: 410
VWidth: 1210
Flags: W
LayerCount: 2
Fore
SplineSet
167 346 m 1,0,1
 173 355 173 355 183 368 c 0,2,3
 244 430 244 430 256 430 c 0,4,5
 277 430 277 430 277 409 c 0,6,7
 277 399 277 399 244.5 364.5 c 128,-1,8
 212 330 212 330 199 322 c 1,9,10
 202 316 202 316 245 276 c 0,11,12
 284 240 284 240 284 227 c 0,13,14
 284 204 284 204 261 204 c 0,15,16
 253 204 253 204 247 210 c 0,17,18
 216 240 216 240 169 292 c 1,19,20
 173 283 173 283 173 226 c 0,21,22
 173 204 173 204 150 204 c 0,23,24
 133 204 133 204 129 220 c 0,25,26
 128 226 128 226 128 250 c 2,27,-1
 128 408 l 2,28,29
 128 430 128 430 150 430 c 0,30,31
 173 430 173 430 173 408 c 0,32,33
 173 362 173 362 167 346 c 1,0,1
EndSplineSet
EndChar

StartChar: L
Encoding: 76 76 47
Width: 410
VWidth: 1210
Flags: W
LayerCount: 2
Fore
SplineSet
156 206 m 2,0,1
 133 206 133 206 133 231 c 0,2,3
 133 243 133 243 133 267 c 0,4,5
 132 291 132 291 132 303 c 0,6,7
 132 321 132 321 132 355 c 0,8,9
 133 390 133 390 133 409.5 c 128,-1,10
 133 429 133 429 154 429 c 0,11,12
 178 429 178 429 178 408 c 0,13,14
 178 256 178 256 175 249 c 1,15,16
 179 247 179 247 182 247 c 0,17,18
 187 247 187 247 195 248.5 c 128,-1,19
 203 250 203 250 207 250 c 0,20,21
 258 250 258 250 254 251 c 1,22,23
 285 248 285 248 285 229 c 0,24,25
 285 207 285 207 264 207 c 2,26,-1
 156 206 l 2,0,1
EndSplineSet
EndChar

StartChar: M
Encoding: 77 77 48
Width: 410
VWidth: 1210
Flags: W
LayerCount: 2
Fore
SplineSet
168 333 m 1,0,1
 168 320 168 320 168 279 c 0,2,3
 169 244 169 244 169 225 c 0,4,5
 169 203 169 203 146 203 c 256,6,7
 123 203 123 203 123 258 c 2,8,-1
 123 404 l 2,9,10
 123 430 123 430 170 430 c 0,11,12
 187 430 187 430 206 359 c 1,13,14
 222 430 222 430 239 430 c 0,15,16
 263 430 263 430 270 427 c 0,17,18
 286 423 286 423 286 404 c 0,19,20
 286 382 286 382 286 336 c 0,21,22
 287 290 287 290 287 268 c 0,23,24
 287 232 287 232 286 227 c 0,25,26
 282 202 282 202 264 202 c 0,27,28
 240 202 240 202 240 248 c 0,29,30
 240 259 240 259 241.5 276 c 128,-1,31
 243 293 243 293 243 298 c 0,32,33
 243 304 243 304 242 317 c 0,34,35
 242 330 242 330 242 336 c 1,36,37
 236 315 236 315 231 294 c 0,38,39
 221 266 221 266 205 266 c 0,40,41
 190 266 190 266 180 292 c 0,42,43
 174 312 174 312 168 333 c 1,0,1
EndSplineSet
EndChar

StartChar: N
Encoding: 78 78 49
Width: 410
VWidth: 1210
Flags: W
LayerCount: 2
Fore
SplineSet
238 300 m 1,0,1
 237 339 237 339 237 341 c 0,2,3
 237 403 237 403 236 395 c 1,4,5
 239 431 239 431 260 431 c 256,6,7
 281 431 281 431 281 408 c 0,8,9
 281 378 281 378 282 318 c 128,-1,10
 283 258 283 258 283 228 c 0,11,12
 283 202 283 202 258 202 c 0,13,14
 238 202 238 202 228 222 c 0,15,16
 198 282 198 282 173 332 c 1,17,-1
 173 226 l 2,18,19
 173 204 173 204 150 204 c 0,20,21
 128 204 128 204 128 226 c 2,22,-1
 128 363 l 2,23,24
 128 404 128 404 129 407 c 0,25,26
 133 431 133 431 157 431 c 0,27,28
 173 431 173 431 182 414 c 0,29,30
 206 368 206 368 238 300 c 1,0,1
EndSplineSet
EndChar

StartChar: O
Encoding: 79 79 50
Width: 410
VWidth: 1210
Flags: W
LayerCount: 2
Fore
SplineSet
205 201 m 0,0,1
 165 201 165 201 144 242 c 0,2,3
 126 274 126 274 126 317 c 0,4,5
 126 359 126 359 144 391 c 0,6,7
 166 431 166 431 205 431 c 0,8,9
 242 431 242 431 265 391 c 0,10,11
 285 357 285 357 285 317 c 256,12,13
 285 277 285 277 265 242 c 0,14,15
 242 201 242 201 205 201 c 0,0,1
205 387 m 0,16,17
 187 387 187 387 177 360 c 0,18,19
 169 339 169 339 169 317 c 256,20,21
 169 295 169 295 177 273 c 0,22,23
 187 245 187 245 205 245 c 0,24,25
 221 245 221 245 232 274 c 0,26,27
 241 297 241 297 241 317 c 0,28,29
 241 338 241 338 233 360 c 0,30,31
 222 387 222 387 205 387 c 0,16,17
EndSplineSet
EndChar

StartChar: P
Encoding: 80 80 51
Width: 410
VWidth: 1210
Flags: W
LayerCount: 2
Fore
SplineSet
170 294 m 1,0,1
 174 286 174 286 174 281 c 0,2,3
 174 232 174 232 174 234 c 1,4,5
 171 203 171 203 151 203 c 256,6,7
 131 203 131 203 131 225 c 0,8,9
 131 254 131 254 130 314 c 0,10,11
 130 373 130 373 130 403 c 0,12,13
 130 424 130 424 160 427 c 1,14,15
 155 427 155 427 207 427 c 0,16,17
 240 427 240 427 261.5 409.5 c 128,-1,18
 283 392 283 392 283 360 c 256,19,20
 283 328 283 328 261.5 309.5 c 128,-1,21
 240 291 240 291 207 291 c 0,22,23
 202 291 202 291 193 293.5 c 128,-1,24
 184 296 184 296 179 296 c 0,25,26
 176 296 176 296 170 294 c 1,0,1
191 383 m 0,27,28
 188 383 188 383 182.5 385 c 128,-1,29
 177 387 177 387 175 387 c 0,30,31
 172 387 172 387 169 380 c 1,32,33
 173 368 173 368 173 362 c 0,34,35
 173 359 173 359 171.5 352.5 c 128,-1,36
 170 346 170 346 170 343 c 0,37,38
 170 338 170 338 173 333 c 2,39,-1
 173 332 l 1,40,41
 184 336 184 336 187 336 c 0,42,43
 214 336 214 336 221 337 c 0,44,45
 241 342 241 342 241 360 c 0,46,47
 241 383 241 383 191 383 c 0,27,28
EndSplineSet
EndChar

StartChar: Q
Encoding: 81 81 52
Width: 410
VWidth: 1210
Flags: W
LayerCount: 2
Fore
SplineSet
264 202 m 0,0,1
 253 202 253 202 248.5 210 c 128,-1,2
 244 218 244 218 240 226 c 1,3,4
 224 215 224 215 205 215 c 0,5,6
 166 215 166 215 146 252 c 0,7,8
 128 281 128 281 128 323 c 256,9,10
 128 365 128 365 145 395 c 0,11,12
 166 430 166 430 205 430 c 0,13,14
 243 430 243 430 265 394 c 0,15,16
 282 365 282 365 282 323 c 0,17,18
 282 286 282 286 268 257 c 0,19,20
 270 253 270 253 279 243 c 128,-1,21
 288 233 288 233 288 225 c 0,22,23
 288 202 288 202 264 202 c 0,0,1
205 388 m 256,24,25
 187 388 187 388 178 363 c 0,26,27
 170 344 170 344 170 323 c 0,28,29
 170 303 170 303 178 284 c 0,30,31
 188 259 188 259 205 259 c 0,32,33
 210 259 210 259 214 261 c 1,34,35
 184 291 184 291 184 303 c 0,36,37
 184 325 184 325 206 325 c 0,38,39
 218 325 218 325 224 315.5 c 128,-1,40
 230 306 230 306 236 297 c 1,41,42
 240 311 240 311 240 323 c 0,43,44
 240 345 240 345 233 363 c 0,45,46
 223 388 223 388 205 388 c 256,24,25
EndSplineSet
EndChar

StartChar: R
Encoding: 82 82 53
Width: 410
VWidth: 1210
Flags: W
LayerCount: 2
Fore
SplineSet
178 293 m 1,0,1
 181 290 181 290 181 281 c 0,2,3
 181 230 181 230 181 234 c 1,4,5
 178 203 178 203 158 203 c 0,6,7
 137 203 137 203 137 226 c 128,-1,8
 137 249 137 249 136 297 c 128,-1,9
 135 345 135 345 135 369 c 0,10,11
 135 398 135 398 137 406 c 0,12,13
 142 427 142 427 160 427 c 2,14,-1
 204 427 l 2,15,16
 235 427 235 427 256 409.5 c 128,-1,17
 277 392 277 392 277 360 c 0,18,19
 277 316 277 316 239 299 c 1,20,21
 246 292 246 292 262.5 261.5 c 128,-1,22
 279 231 279 231 279 223 c 0,23,24
 279 202 279 202 258 202 c 0,25,26
 240 202 240 202 218 249.5 c 128,-1,27
 196 297 196 297 186 297 c 0,28,29
 184 297 184 297 178 293 c 1,0,1
184 387 m 0,30,31
 176 387 176 387 176 380 c 0,32,33
 176 378 176 378 178 371.5 c 128,-1,34
 180 365 180 365 180 362 c 0,35,36
 180 358 180 358 177.5 350 c 128,-1,37
 175 342 175 342 175 339 c 0,38,39
 175 329 175 329 186 329 c 0,40,41
 187 329 187 329 205 336 c 1,42,43
 235 336 235 336 235 360 c 0,44,45
 235 383 235 383 207 383 c 0,46,47
 203 383 203 383 195.5 385 c 128,-1,48
 188 387 188 387 184 387 c 0,30,31
EndSplineSet
EndChar

StartChar: S
Encoding: 83 83 54
Width: 410
VWidth: 1210
Flags: W
LayerCount: 2
Fore
SplineSet
247 358 m 0,0,1
 226 358 226 358 226 380 c 1,2,3
 214 388 214 388 202 388 c 0,4,5
 176 388 176 388 176 369 c 0,6,7
 176 356 176 356 200 344 c 0,8,9
 236 327 236 327 246 319 c 0,10,11
 270 299 270 299 270 267 c 0,12,13
 270 238 270 238 248.5 219.5 c 128,-1,14
 227 201 227 201 198 201 c 256,15,16
 169 201 169 201 150 216 c 0,17,18
 128 233 128 233 128 261 c 0,19,20
 128 283 128 283 151 283 c 0,21,22
 166 283 166 283 172 264 c 128,-1,23
 178 245 178 245 198 245 c 0,24,25
 208 245 208 245 218 251.5 c 128,-1,26
 228 258 228 258 228 268 c 0,27,28
 228 280 228 280 180 307.5 c 128,-1,29
 132 335 132 335 132 369 c 0,30,31
 132 395 132 395 153.5 413 c 128,-1,32
 175 431 175 431 202 431 c 0,33,34
 225 431 225 431 247.5 416 c 128,-1,35
 270 401 270 401 270 380 c 0,36,37
 270 358 270 358 247 358 c 0,0,1
EndSplineSet
EndChar

StartChar: T
Encoding: 84 84 55
Width: 410
VWidth: 1210
Flags: W
LayerCount: 2
Fore
SplineSet
264 383 m 0,0,1
 235 383 235 383 225 386 c 1,2,3
 224 374 224 374 224 374 c 2,4,5
 224 371 224 371 225 365 c 128,-1,6
 226 359 226 359 226 355 c 0,7,8
 226 337 226 337 227 299.5 c 128,-1,9
 228 262 228 262 228 244 c 0,10,11
 228 201 228 201 205 201 c 0,12,13
 186 201 186 201 182 238 c 1,14,15
 183 236 183 236 183 290 c 0,16,17
 183 370 183 370 186 384 c 1,18,-1
 181 386 l 1,19,20
 170 383 170 383 165 383 c 0,21,22
 124 383 124 383 124 405 c 0,23,24
 124 423 124 423 144 427 c 0,25,26
 149 428 149 428 179 428 c 2,27,-1
 264 428 l 2,28,29
 285 428 285 428 285 405 c 0,30,31
 285 383 285 383 264 383 c 0,0,1
EndSplineSet
EndChar

StartChar: U
Encoding: 85 85 56
Width: 410
VWidth: 1210
Flags: W
LayerCount: 2
Fore
SplineSet
214 201 m 0,0,1
 128 201 128 201 128 275 c 0,2,3
 128 297 128 297 128 342 c 0,4,5
 129 386 129 386 129 408 c 128,-1,6
 129 430 129 430 151 430 c 0,7,8
 172 430 172 430 172 409 c 128,-1,9
 172 388 172 388 173 347 c 0,10,11
 173 306 173 306 173 286 c 0,12,13
 173 264 173 264 178 257 c 0,14,15
 185 246 185 246 205 246 c 0,16,17
 239 246 239 246 239 291 c 0,18,19
 239 299 239 299 238 315 c 128,-1,20
 237 331 237 331 237 337 c 0,21,22
 237 349 237 349 237 372 c 0,23,24
 238 396 238 396 238 408 c 0,25,26
 238 430 238 430 259 430 c 0,27,28
 281 430 281 430 281 408 c 256,29,30
 281 386 281 386 281 342 c 0,31,32
 282 297 282 297 282 275 c 0,33,34
 282 245 282 245 262.5 223 c 128,-1,35
 243 201 243 201 214 201 c 0,0,1
EndSplineSet
EndChar

StartChar: V
Encoding: 86 86 57
Width: 410
VWidth: 1210
Flags: W
LayerCount: 2
Fore
SplineSet
205 271 m 1,0,1
 208 287 208 287 216 321 c 2,2,-1
 241 414 l 2,3,4
 245 432 245 432 262 432 c 0,5,6
 284 432 284 432 284 409 c 0,7,8
 284 404 284 404 243 243 c 0,9,10
 240 231 240 231 237 219 c 0,11,12
 231 205 231 205 221 205 c 2,13,-1
 189 205 l 2,14,15
 177 205 177 205 171 225 c 0,16,17
 125 400 125 400 125 409 c 0,18,19
 125 431 125 431 148 431 c 0,20,21
 165 431 165 431 170 415 c 0,22,23
 181 366 181 366 205 271 c 1,0,1
EndSplineSet
EndChar

StartChar: W
Encoding: 87 87 58
Width: 410
VWidth: 1210
Flags: W
LayerCount: 2
Fore
SplineSet
237 309 m 1,0,1
 241 348 241 348 241 410 c 0,2,3
 241 431 241 431 264 431 c 0,4,5
 286 431 286 431 286 410 c 2,6,-1
 286 382 l 2,7,8
 286 357 286 357 279 298 c 0,9,10
 273 235 273 235 267 219.5 c 128,-1,11
 261 204 261 204 235 204 c 0,12,13
 221 204 221 204 213 223 c 0,14,15
 209 238 209 238 205 254 c 1,16,17
 199 226 199 226 194 218 c 0,18,19
 186 204 186 204 162 204 c 0,20,21
 150 204 150 204 144 220 c 0,22,23
 125 270 125 270 125 410 c 0,24,25
 125 431 125 431 146 431 c 256,26,27
 167 431 167 431 167 410 c 0,28,29
 167 361 167 361 173 305 c 1,30,31
 179 330 179 330 181 335 c 0,32,33
 189 350 189 350 205 350 c 0,34,35
 223 350 223 350 229 339 c 0,36,37
 230 337 230 337 237 309 c 1,0,1
EndSplineSet
EndChar

StartChar: X
Encoding: 88 88 59
Width: 410
VWidth: 1210
Flags: W
LayerCount: 2
Fore
SplineSet
206 357 m 1,0,1
 214 376 214 376 223 395 c 0,2,3
 239 429 239 429 255 429 c 0,4,5
 278 429 278 429 278 408 c 0,6,7
 278 402 278 402 237 333 c 0,8,9
 228 317 228 317 228 321 c 1,10,11
 228 317 228 317 254 278 c 128,-1,12
 280 239 280 239 280 230 c 0,13,14
 280 204 280 204 258 204 c 0,15,16
 245 204 245 204 231 228 c 0,17,18
 219 249 219 249 205 280 c 1,19,20
 195 259 195 259 186 239 c 0,21,22
 169 204 169 204 152 204 c 0,23,24
 130 204 130 204 130 226 c 0,25,26
 130 239 130 239 155.5 278 c 128,-1,27
 181 317 181 317 181 318 c 0,28,29
 181 323 181 323 156.5 359 c 128,-1,30
 132 395 132 395 132 408 c 0,31,32
 132 430 132 430 154 430 c 0,33,34
 166 430 166 430 185 400.5 c 128,-1,35
 204 371 204 371 206 357 c 1,0,1
EndSplineSet
EndChar

StartChar: Y
Encoding: 89 89 60
Width: 410
VWidth: 1210
Flags: W
LayerCount: 2
Fore
SplineSet
206 352 m 1,0,1
 206 353 206 353 208 362 c 0,2,3
 210 375 210 375 228.5 403.5 c 128,-1,4
 247 432 247 432 257 432 c 0,5,6
 279 432 279 432 279 410 c 0,7,8
 279 401 279 401 254 358.5 c 128,-1,9
 229 316 229 316 228 308 c 0,10,11
 228 307 228 307 228 281 c 0,12,13
 228 232 228 232 228 234 c 1,14,15
 224 203 224 203 205 203 c 0,16,17
 182 203 182 203 182 250 c 0,18,19
 182 260 182 260 183 277 c 128,-1,20
 184 294 184 294 184 297 c 0,21,22
 184 311 184 311 157.5 354 c 128,-1,23
 131 397 131 397 131 410 c 0,24,25
 131 432 131 432 152 432 c 0,26,27
 165 432 165 432 172 420 c 0,28,29
 187 393 187 393 206 352 c 1,0,1
EndSplineSet
EndChar

StartChar: Z
Encoding: 90 90 61
Width: 410
VWidth: 1210
Flags: W
LayerCount: 2
Fore
SplineSet
209 386 m 1,0,1
 200 386 200 386 181.5 384 c 128,-1,2
 163 382 163 382 155 382 c 0,3,4
 134 382 134 382 134 405 c 256,5,6
 134 428 134 428 155 428 c 0,7,8
 169 428 169 428 199 427 c 0,9,10
 228 427 228 427 243 427 c 0,11,12
 265 427 265 427 265 405 c 0,13,14
 265 396 265 396 227.5 326.5 c 128,-1,15
 190 257 190 257 181 248 c 1,16,17
 187 246 187 246 185 246 c 1,18,19
 186 246 186 246 193.5 248.5 c 128,-1,20
 201 251 201 251 206 251 c 0,21,22
 246 251 246 251 248 251 c 0,23,24
 276 247 276 247 276 229 c 256,25,26
 276 211 276 211 253 207 c 0,27,28
 246 205 246 205 216 205 c 0,29,30
 210 205 210 205 199 206 c 128,-1,31
 188 207 188 207 183 207 c 0,32,33
 150 207 150 207 150 207 c 2,34,35
 132 210 132 210 132 229 c 0,36,37
 132 235 132 235 166.5 305 c 128,-1,38
 201 375 201 375 209 386 c 1,0,1
EndSplineSet
EndChar

StartChar: bracketleft
Encoding: 91 91 62
Width: 410
VWidth: 1210
Flags: W
LayerCount: 2
Fore
SplineSet
156 227 m 0,0,1
 156 242 156 242 155 270.5 c 128,-1,2
 154 299 154 299 154 313 c 2,3,-1
 154 392 l 2,4,5
 154 430 154 430 178 430 c 0,6,7
 190 430 190 430 215 429 c 0,8,9
 239 429 239 429 252 429 c 0,10,11
 272 429 272 429 272 408 c 0,12,13
 272 386 272 386 252 386 c 0,14,15
 211 386 211 386 197 390 c 1,16,17
 194 386 194 386 194 384 c 0,18,19
 194 381 194 381 196 374 c 128,-1,20
 198 367 198 367 198 364 c 0,21,22
 198 353 198 353 198 334 c 0,23,24
 199 315 199 315 199 305 c 0,25,26
 199 253 199 253 197 245 c 1,27,28
 202 244 202 244 205 244 c 0,29,30
 211 244 211 244 223.5 245 c 128,-1,31
 236 246 236 246 243 246 c 0,32,33
 274 246 274 246 274 225 c 0,34,35
 274 206 274 206 240 203 c 0,36,37
 239 203 239 203 192 203 c 0,38,39
 156 203 156 203 156 227 c 0,0,1
EndSplineSet
EndChar

StartChar: backslash
Encoding: 92 92 63
Width: 410
VWidth: 1210
Flags: W
LayerCount: 2
Fore
SplineSet
221 218 m 0,0,1
 144 396 144 396 144 408 c 0,2,3
 144 430 144 430 169 430 c 0,4,5
 182 430 182 430 188 418 c 0,6,7
 263 246 263 246 263 226 c 0,8,9
 263 203 263 203 242 203 c 0,10,11
 228 203 228 203 221 218 c 0,0,1
EndSplineSet
EndChar

StartChar: bracketright
Encoding: 93 93 64
Width: 410
VWidth: 1210
Flags: W
LayerCount: 2
Fore
SplineSet
256 235 m 1,0,1
 253 203 253 203 232 203 c 0,2,3
 220 203 220 203 195 204 c 0,4,5
 171 204 171 204 158 204 c 0,6,7
 136 204 136 204 136 225 c 0,8,9
 136 248 136 248 158 248 c 0,10,11
 195 248 195 248 212 243 c 1,12,13
 216 246 216 246 216 251 c 0,14,15
 216 254 216 254 214.5 260 c 128,-1,16
 213 266 213 266 213 270 c 0,17,18
 213 284 213 284 212 313 c 0,19,20
 212 342 212 342 212 356 c 0,21,22
 212 378 212 378 214 388 c 1,23,24
 209 389 209 389 203 389 c 0,25,26
 196 389 196 389 181 387.5 c 128,-1,27
 166 386 166 386 158 386 c 0,28,29
 138 386 138 386 138 408 c 256,30,31
 138 430 138 430 185 430 c 0,32,33
 231 430 231 430 233 430 c 0,34,35
 256 425 256 425 257 396 c 0,36,37
 257 390 257 390 256 376 c 0,38,39
 256 357 256 357 256 347 c 2,40,-1
 256 281 l 2,41,42
 256 233 256 233 256 235 c 1,0,1
EndSplineSet
EndChar

StartChar: asciicircum
Encoding: 94 94 65
Width: 410
VWidth: 1210
Flags: W
LayerCount: 2
Fore
SplineSet
206 362 m 2,0,1
 203 361 203 361 197 355 c 0,2,3
 187 341 187 341 178 327 c 0,4,5
 163 309 163 309 152 309 c 0,6,7
 130 309 130 309 130 332 c 0,8,9
 130 338 130 338 186 420 c 0,10,11
 195 434 195 434 205 434 c 0,12,13
 214 434 214 434 224 420 c 0,14,15
 280 340 280 340 280 332 c 0,16,17
 280 310 280 310 258 310 c 0,18,19
 242 310 242 310 211 355 c 2,20,-1
 206 362 l 2,0,1
EndSplineSet
EndChar

StartChar: underscore
Encoding: 95 95 66
Width: 410
VWidth: 1210
Flags: W
LayerCount: 2
Fore
SplineSet
263 136 m 2,0,-1
 164 136 l 2,1,2
 122 136 122 136 122 164 c 0,3,4
 122 189 122 189 146 189 c 2,5,-1
 263 189 l 2,6,7
 287 189 287 189 287 161 c 0,8,9
 287 136 287 136 263 136 c 2,0,-1
EndSplineSet
EndChar

StartChar: grave
Encoding: 96 96 67
Width: 410
VWidth: 1210
Flags: W
LayerCount: 2
Fore
SplineSet
207 377 m 0,0,1
 196 377 196 377 182 395.5 c 128,-1,2
 168 414 168 414 168 425 c 0,3,4
 168 448 168 448 189 448 c 0,5,6
 200 448 200 448 215 429.5 c 128,-1,7
 230 411 230 411 230 400 c 0,8,9
 230 377 230 377 207 377 c 0,0,1
EndSplineSet
EndChar

StartChar: a
Encoding: 97 97 68
Width: 410
VWidth: 1210
Flags: W
LayerCount: 2
Fore
SplineSet
262 203 m 0,0,1
 243 203 243 203 238 229 c 0,2,3
 231 263 231 263 228 267 c 1,4,-1
 224 267 l 2,5,6
 218 264 218 264 211 264 c 0,7,8
 207 264 207 264 199.5 265.5 c 128,-1,9
 192 267 192 267 188 267 c 0,10,11
 185 267 185 267 179 264 c 1,12,-1
 180 261 l 1,13,14
 180 243 180 243 172 225 c 0,15,16
 163 202 163 202 148 202 c 0,17,18
 126 202 126 202 126 225 c 0,19,20
 126 239 126 239 172 410 c 0,21,22
 178 431 178 431 191 431 c 0,23,24
 195 431 195 431 204.5 430 c 128,-1,25
 214 429 214 429 219 429 c 0,26,27
 230 429 230 429 236 409 c 0,28,29
 284 238 284 238 284 225 c 0,30,31
 284 203 284 203 262 203 c 0,0,1
205 355 m 1,32,33
 202 343 202 343 199.5 332 c 128,-1,34
 197 321 197 321 187 309 c 1,35,-1
 187 306 l 1,36,37
 195 301 195 301 199 301 c 0,38,39
 202 301 202 301 219 308 c 1,40,41
 213 315 213 315 210 329 c 128,-1,42
 207 343 207 343 205 355 c 1,32,33
EndSplineSet
EndChar

StartChar: b
Encoding: 98 98 69
Width: 410
VWidth: 1210
Flags: W
LayerCount: 2
Fore
SplineSet
145 206 m 0,0,1
 125 206 125 206 121 232 c 0,2,3
 121 235 121 235 121 274 c 0,4,5
 121 295 121 295 121 338 c 0,6,7
 122 381 122 381 122 404.5 c 128,-1,8
 122 428 122 428 145 428 c 0,9,10
 212 428 212 428 230 423 c 0,11,12
 278 411 278 411 278 364 c 0,13,14
 278 337 278 337 263 322 c 1,15,16
 284 302 284 302 284 278 c 0,17,18
 284 226 284 226 236 212 c 0,19,20
 215 206 215 206 145 206 c 0,0,1
165 341 m 1,21,22
 170 342 170 342 181 342 c 2,23,-1
 190 342 l 2,24,25
 235 342 235 342 235 363 c 0,26,27
 235 383 235 383 194 383 c 0,28,29
 190 383 190 383 182.5 385 c 128,-1,30
 175 387 175 387 171 387 c 256,31,32
 167 387 167 387 162 384 c 1,33,34
 166 367 166 367 166 365 c 0,35,36
 166 362 166 362 165 356 c 128,-1,37
 164 350 164 350 164 347 c 0,38,39
 164 345 164 345 165 341 c 1,21,22
194 300 m 0,40,41
 190 300 190 300 182.5 302.5 c 128,-1,42
 175 305 175 305 171 305 c 0,43,44
 161 305 161 305 161 296 c 0,45,46
 161 293 161 293 163 286.5 c 128,-1,47
 165 280 165 280 165 277 c 256,48,49
 165 274 165 274 164 268 c 128,-1,50
 163 262 163 262 163 259 c 0,51,52
 163 253 163 253 164 249 c 1,53,54
 165 250 165 250 209 252 c 0,55,56
 239 254 239 254 239 276 c 0,57,58
 239 300 239 300 194 300 c 0,40,41
EndSplineSet
EndChar

StartChar: c
Encoding: 99 99 70
Width: 410
VWidth: 1210
Flags: W
LayerCount: 2
Fore
SplineSet
209 202 m 0,0,1
 172 202 172 202 151 236 c 0,2,3
 134 265 134 265 134 304 c 0,4,5
 134 431 134 431 209 431 c 0,6,7
 229 431 229 431 248.5 417 c 128,-1,8
 268 403 268 403 268 383 c 0,9,10
 268 362 268 362 247 362 c 0,11,12
 234 362 234 362 227 374.5 c 128,-1,13
 220 387 220 387 211 387 c 0,14,15
 196 387 196 387 187 369.5 c 128,-1,16
 178 352 178 352 178 334 c 0,17,18
 178 247 178 247 211 247 c 0,19,20
 220 247 220 247 226.5 259.5 c 128,-1,21
 233 272 233 272 247 272 c 0,22,23
 268 272 268 272 268 250 c 0,24,25
 268 231 268 231 248.5 216.5 c 128,-1,26
 229 202 229 202 209 202 c 0,0,1
EndSplineSet
EndChar

StartChar: d
Encoding: 100 100 71
Width: 410
VWidth: 1210
Flags: W
LayerCount: 2
Fore
SplineSet
168 206 m 0,0,1
 144 206 144 206 144 231 c 0,2,3
 144 249 144 249 144 285 c 0,4,5
 143 321 143 321 143 339 c 0,6,7
 143 344 143 344 144 354 c 0,8,9
 144 364 144 364 144 369.5 c 128,-1,10
 144 375 144 375 144 385 c 0,11,12
 143 396 143 396 143 400 c 0,13,14
 143 428 143 428 180 428 c 256,15,16
 217 428 217 428 246.5 400 c 128,-1,17
 276 372 276 372 278 335 c 0,18,19
 278 321 278 321 278 305 c 0,20,21
 278 261 278 261 245 233.5 c 128,-1,22
 212 206 212 206 168 206 c 0,0,1
182 383 m 1,23,24
 185 373 185 373 185 347 c 0,25,26
 185 336 185 336 183 300 c 0,27,28
 182 271 182 271 183 254 c 2,29,-1
 183 251 l 1,30,31
 207 254 207 254 221.5 273 c 128,-1,32
 236 292 236 292 236 317 c 0,33,34
 236 378 236 378 182 383 c 1,23,24
EndSplineSet
EndChar

StartChar: e
Encoding: 101 101 72
Width: 410
VWidth: 1210
Flags: W
LayerCount: 2
Fore
SplineSet
179 248 m 0,0,1
 188 251 188 251 193 251 c 0,2,3
 199 251 199 251 210 251 c 0,4,5
 222 250 222 250 228 250 c 0,6,7
 262 250 262 250 260 250 c 1,8,9
 279 247 279 247 279 229 c 0,10,11
 279 206 279 206 256 206 c 0,12,13
 240 206 240 206 208 206 c 0,14,15
 176 207 176 207 158 207 c 128,-1,16
 140 207 140 207 135 232 c 0,17,18
 135 237 135 237 135 274 c 2,19,-1
 135 403 l 2,20,21
 135 426 135 426 159 426 c 0,22,23
 169 426 169 426 187 427 c 128,-1,24
 205 428 205 428 215 428 c 0,25,26
 250 428 250 428 252 427 c 0,27,28
 275 424 275 424 275 405 c 0,29,30
 275 383 275 383 253 383 c 0,31,32
 242 383 242 383 219 384.5 c 128,-1,33
 196 386 196 386 185 386 c 0,34,35
 181 386 181 386 177 384 c 1,36,-1
 177 384 l 1,37,38
 180 381 180 381 180 370 c 0,39,40
 180 366 180 366 177.5 358 c 128,-1,41
 175 350 175 350 175 346 c 0,42,43
 175 338 175 338 180 338 c 2,44,45
 180 338 180 338 187.5 340.5 c 128,-1,46
 195 343 195 343 199 343 c 0,47,48
 240 343 240 343 239 343 c 1,49,50
 265 339 265 339 265 321 c 0,51,52
 265 297 265 297 243 298 c 2,53,-1
 216 298 l 2,54,55
 211 298 211 298 201.5 300.5 c 128,-1,56
 192 303 192 303 187 303 c 0,57,58
 183 303 183 303 177 299 c 2,59,-1
 175 296 l 1,60,61
 181 282 181 282 181 276 c 0,62,63
 181 272 181 272 178.5 265 c 128,-1,64
 176 258 176 258 176 254 c 0,65,66
 176 251 176 251 179 248 c 0,0,1
EndSplineSet
EndChar

StartChar: f
Encoding: 102 102 73
Width: 410
VWidth: 1210
Flags: W
LayerCount: 2
Fore
SplineSet
256 383 m 0,0,1
 208 383 208 383 196 387 c 1,2,3
 193 382 193 382 193 379 c 0,4,5
 193 375 193 375 195.5 367.5 c 128,-1,6
 198 360 198 360 198 355 c 0,7,8
 198 352 198 352 194 341 c 1,9,10
 203 340 203 340 203 340 c 2,11,12
 207 340 207 340 214.5 342 c 128,-1,13
 222 344 222 344 226 344 c 0,14,15
 264 344 264 344 264 321 c 0,16,17
 264 299 264 299 243 299 c 0,18,19
 208 299 208 299 196 302 c 1,20,-1
 195 292 l 2,21,22
 195 283 195 283 197 266 c 128,-1,23
 199 249 199 249 199 241 c 0,24,25
 199 202 199 202 176 202 c 0,26,27
 155 202 155 202 155 225 c 0,28,29
 155 254 155 254 154 313.5 c 128,-1,30
 153 373 153 373 153 403 c 0,31,32
 153 424 153 424 172 427 c 1,33,34
 168 426 168 426 207 426 c 0,35,36
 215 426 215 426 231.5 427 c 128,-1,37
 248 428 248 428 256 428 c 0,38,39
 278 428 278 428 278 405 c 0,40,41
 278 383 278 383 256 383 c 0,0,1
EndSplineSet
EndChar

StartChar: g
Encoding: 103 103 74
Width: 410
VWidth: 1210
Flags: W
LayerCount: 2
Fore
SplineSet
211 205 m 0,0,1
 169 205 169 205 147 243 c 0,2,3
 128 274 128 274 128 318 c 0,4,5
 128 364 128 364 146 394 c 0,6,7
 168 432 168 432 211 432 c 0,8,9
 234 432 234 432 255 422 c 0,10,11
 281 410 281 410 281 390 c 0,12,13
 281 368 281 368 260 368 c 0,14,15
 251 368 251 368 240.5 378 c 128,-1,16
 230 388 230 388 214 388 c 0,17,18
 173 388 173 388 173 314 c 0,19,20
 173 249 173 249 214 249 c 0,21,22
 230 249 230 249 240 254 c 1,23,24
 239 252 239 252 239 273 c 0,25,26
 239 276 239 276 241 281.5 c 128,-1,27
 243 287 243 287 243 289 c 0,28,29
 243 295 243 295 234 295 c 0,30,31
 231 295 231 295 224 293 c 128,-1,32
 217 291 217 291 213 291 c 0,33,34
 191 291 191 291 191 312 c 0,35,36
 191 335 191 335 233 335 c 0,37,38
 283 335 283 335 283 309 c 2,39,-1
 283 245 l 2,40,41
 283 205 283 205 211 205 c 0,0,1
EndSplineSet
EndChar

StartChar: h
Encoding: 104 104 75
Width: 410
VWidth: 1210
Flags: W
LayerCount: 2
Fore
SplineSet
277 303 m 2,0,1
 277 292 277 292 277 264 c 0,2,3
 276 240 276 240 276 226 c 0,4,5
 276 203 276 203 255 203 c 0,6,7
 232 203 232 203 232 226 c 2,8,-1
 232 290 l 2,9,10
 232 295 232 295 235 302 c 1,11,12
 229 304 229 304 224 304 c 0,13,14
 220 304 220 304 211 302.5 c 128,-1,15
 202 301 202 301 197 301 c 0,16,17
 194 301 194 301 187.5 303 c 128,-1,18
 181 305 181 305 178 305 c 0,19,20
 172 305 172 305 172 299 c 0,21,22
 172 297 172 297 174.5 290 c 128,-1,23
 177 283 177 283 177 279 c 0,24,25
 177 236 177 236 177 233 c 0,26,27
 173 202 173 202 154 202 c 0,28,29
 132 202 132 202 132 226 c 2,30,-1
 132 408 l 2,31,32
 132 430 132 430 154 430 c 0,33,34
 178 430 178 430 178 408 c 0,35,36
 178 359 178 359 173 346 c 1,37,38
 181 340 181 340 185 340 c 0,39,40
 190 340 190 340 199 342.5 c 128,-1,41
 208 345 208 345 213 345 c 0,42,43
 217 345 217 345 232 340 c 1,44,-1
 234 341 l 1,45,46
 238 348 238 348 238 352 c 0,47,48
 238 357 238 357 235.5 366.5 c 128,-1,49
 233 376 233 376 233 381 c 0,50,51
 233 408 233 408 234 412 c 0,52,53
 238 430 238 430 255 430 c 0,54,55
 273 430 273 430 277 409 c 0,56,57
 278 403 278 403 278 375 c 2,58,-1
 277 303 l 2,0,1
EndSplineSet
EndChar

StartChar: i
Encoding: 105 105 76
Width: 410
VWidth: 1210
Flags: W
LayerCount: 2
Fore
SplineSet
224 248 m 0,0,1
 226 247 226 247 228 247 c 0,2,3
 231 247 231 247 237 248.5 c 128,-1,4
 243 250 243 250 246 250 c 0,5,6
 268 250 268 250 268 229 c 256,7,8
 268 208 268 208 233 205 c 1,9,10
 238 206 238 206 181 206 c 0,11,12
 142 206 142 206 142 229 c 0,13,14
 142 250 142 250 164 250 c 0,15,16
 168 250 168 250 182 245 c 1,17,-1
 185 247 l 2,18,19
 188 252 188 252 188 256 c 256,20,21
 188 260 188 260 186 268.5 c 128,-1,22
 184 277 184 277 184 281 c 0,23,24
 184 292 184 292 183 313.5 c 128,-1,25
 182 335 182 335 182 346 c 0,26,27
 182 368 182 368 186 384 c 1,28,-1
 184 386 l 1,29,30
 175 383 175 383 170 383 c 0,31,32
 149 383 149 383 149 405 c 0,33,34
 149 428 149 428 170 428 c 2,35,-1
 239 427 l 2,36,37
 262 427 262 427 262 405 c 256,38,39
 262 383 262 383 239 383 c 0,40,41
 236 383 236 383 225 387 c 1,42,43
 224 377 224 377 224 377 c 2,44,45
 224 373 224 373 226 365 c 128,-1,46
 228 357 228 357 228 352 c 0,47,48
 228 257 228 257 224 248 c 0,0,1
EndSplineSet
EndChar

StartChar: j
Encoding: 106 106 77
Width: 410
VWidth: 1210
Flags: W
LayerCount: 2
Fore
SplineSet
252 302 m 2,0,1
 252 262 252 262 250 252 c 0,2,3
 245 225 245 225 223 213 c 0,4,5
 207 204 207 204 194 204 c 0,6,7
 132 204 132 204 132 273 c 0,8,9
 132 296 132 296 154 296 c 0,10,11
 172 296 172 296 176 272.5 c 128,-1,12
 180 249 180 249 193 249 c 0,13,14
 207 249 207 249 207 270 c 0,15,16
 207 370 207 370 208 374 c 0,17,18
 206 378 206 378 206 409 c 0,19,20
 206 431 206 431 229 431 c 0,21,22
 248 431 248 431 252 408 c 0,23,24
 253 403 253 403 253 370 c 2,25,-1
 252 302 l 2,0,1
EndSplineSet
EndChar

StartChar: k
Encoding: 107 107 78
Width: 410
VWidth: 1210
Flags: W
LayerCount: 2
Fore
SplineSet
167 346 m 1,0,1
 173 355 173 355 183 368 c 0,2,3
 244 430 244 430 256 430 c 0,4,5
 277 430 277 430 277 409 c 0,6,7
 277 399 277 399 244.5 364.5 c 128,-1,8
 212 330 212 330 199 322 c 1,9,10
 202 316 202 316 245 276 c 0,11,12
 284 240 284 240 284 227 c 0,13,14
 284 204 284 204 261 204 c 0,15,16
 253 204 253 204 247 210 c 0,17,18
 216 240 216 240 169 292 c 1,19,20
 173 283 173 283 173 226 c 0,21,22
 173 204 173 204 150 204 c 0,23,24
 133 204 133 204 129 220 c 0,25,26
 128 226 128 226 128 250 c 2,27,-1
 128 408 l 2,28,29
 128 430 128 430 150 430 c 0,30,31
 173 430 173 430 173 408 c 0,32,33
 173 362 173 362 167 346 c 1,0,1
EndSplineSet
EndChar

StartChar: l
Encoding: 108 108 79
Width: 410
VWidth: 1210
Flags: W
LayerCount: 2
Fore
SplineSet
156 206 m 2,0,1
 133 206 133 206 133 231 c 0,2,3
 133 243 133 243 133 267 c 0,4,5
 132 291 132 291 132 303 c 0,6,7
 132 321 132 321 132 355 c 0,8,9
 133 390 133 390 133 409.5 c 128,-1,10
 133 429 133 429 154 429 c 0,11,12
 178 429 178 429 178 408 c 0,13,14
 178 256 178 256 175 249 c 1,15,16
 179 247 179 247 182 247 c 0,17,18
 187 247 187 247 195 248.5 c 128,-1,19
 203 250 203 250 207 250 c 0,20,21
 258 250 258 250 254 251 c 1,22,23
 285 248 285 248 285 229 c 0,24,25
 285 207 285 207 264 207 c 2,26,-1
 156 206 l 2,0,1
EndSplineSet
EndChar

StartChar: m
Encoding: 109 109 80
Width: 410
VWidth: 1210
Flags: W
LayerCount: 2
Fore
SplineSet
168 333 m 1,0,1
 168 320 168 320 168 279 c 0,2,3
 169 244 169 244 169 225 c 0,4,5
 169 203 169 203 146 203 c 256,6,7
 123 203 123 203 123 258 c 2,8,-1
 123 404 l 2,9,10
 123 430 123 430 170 430 c 0,11,12
 187 430 187 430 206 359 c 1,13,14
 222 430 222 430 239 430 c 0,15,16
 263 430 263 430 270 427 c 0,17,18
 286 423 286 423 286 404 c 0,19,20
 286 382 286 382 286 336 c 0,21,22
 287 290 287 290 287 268 c 0,23,24
 287 232 287 232 286 227 c 0,25,26
 282 202 282 202 264 202 c 0,27,28
 240 202 240 202 240 248 c 0,29,30
 240 259 240 259 241.5 276 c 128,-1,31
 243 293 243 293 243 298 c 0,32,33
 243 304 243 304 242 317 c 0,34,35
 242 330 242 330 242 336 c 1,36,37
 236 315 236 315 231 294 c 0,38,39
 221 266 221 266 205 266 c 0,40,41
 190 266 190 266 180 292 c 0,42,43
 174 312 174 312 168 333 c 1,0,1
EndSplineSet
EndChar

StartChar: n
Encoding: 110 110 81
Width: 410
VWidth: 1210
Flags: W
LayerCount: 2
Fore
SplineSet
238 300 m 1,0,1
 237 339 237 339 237 341 c 0,2,3
 237 403 237 403 236 395 c 1,4,5
 239 431 239 431 260 431 c 256,6,7
 281 431 281 431 281 408 c 0,8,9
 281 378 281 378 282 318 c 128,-1,10
 283 258 283 258 283 228 c 0,11,12
 283 202 283 202 258 202 c 0,13,14
 238 202 238 202 228 222 c 0,15,16
 198 282 198 282 173 332 c 1,17,-1
 173 226 l 2,18,19
 173 204 173 204 150 204 c 0,20,21
 128 204 128 204 128 226 c 2,22,-1
 128 363 l 2,23,24
 128 404 128 404 129 407 c 0,25,26
 133 431 133 431 157 431 c 0,27,28
 173 431 173 431 182 414 c 0,29,30
 206 368 206 368 238 300 c 1,0,1
EndSplineSet
EndChar

StartChar: o
Encoding: 111 111 82
Width: 410
VWidth: 1210
Flags: W
LayerCount: 2
Fore
SplineSet
205 201 m 0,0,1
 165 201 165 201 144 242 c 0,2,3
 126 274 126 274 126 317 c 0,4,5
 126 359 126 359 144 391 c 0,6,7
 166 431 166 431 205 431 c 0,8,9
 242 431 242 431 265 391 c 0,10,11
 285 357 285 357 285 317 c 256,12,13
 285 277 285 277 265 242 c 0,14,15
 242 201 242 201 205 201 c 0,0,1
205 387 m 0,16,17
 187 387 187 387 177 360 c 0,18,19
 169 339 169 339 169 317 c 256,20,21
 169 295 169 295 177 273 c 0,22,23
 187 245 187 245 205 245 c 0,24,25
 221 245 221 245 232 274 c 0,26,27
 241 297 241 297 241 317 c 0,28,29
 241 338 241 338 233 360 c 0,30,31
 222 387 222 387 205 387 c 0,16,17
EndSplineSet
EndChar

StartChar: p
Encoding: 112 112 83
Width: 410
VWidth: 1210
Flags: W
LayerCount: 2
Fore
SplineSet
170 294 m 1,0,1
 174 286 174 286 174 281 c 0,2,3
 174 232 174 232 174 234 c 1,4,5
 171 203 171 203 151 203 c 256,6,7
 131 203 131 203 131 225 c 0,8,9
 131 254 131 254 130 314 c 0,10,11
 130 373 130 373 130 403 c 0,12,13
 130 424 130 424 160 427 c 1,14,15
 155 427 155 427 207 427 c 0,16,17
 240 427 240 427 261.5 409.5 c 128,-1,18
 283 392 283 392 283 360 c 256,19,20
 283 328 283 328 261.5 309.5 c 128,-1,21
 240 291 240 291 207 291 c 0,22,23
 202 291 202 291 193 293.5 c 128,-1,24
 184 296 184 296 179 296 c 0,25,26
 176 296 176 296 170 294 c 1,0,1
191 383 m 0,27,28
 188 383 188 383 182.5 385 c 128,-1,29
 177 387 177 387 175 387 c 0,30,31
 172 387 172 387 169 380 c 1,32,33
 173 368 173 368 173 362 c 0,34,35
 173 359 173 359 171.5 352.5 c 128,-1,36
 170 346 170 346 170 343 c 0,37,38
 170 338 170 338 173 333 c 2,39,-1
 173 332 l 1,40,41
 184 336 184 336 187 336 c 0,42,43
 214 336 214 336 221 337 c 0,44,45
 241 342 241 342 241 360 c 0,46,47
 241 383 241 383 191 383 c 0,27,28
EndSplineSet
EndChar

StartChar: q
Encoding: 113 113 84
Width: 410
VWidth: 1210
Flags: W
LayerCount: 2
Fore
SplineSet
264 202 m 0,0,1
 253 202 253 202 248.5 210 c 128,-1,2
 244 218 244 218 240 226 c 1,3,4
 224 215 224 215 205 215 c 0,5,6
 166 215 166 215 146 252 c 0,7,8
 128 281 128 281 128 323 c 256,9,10
 128 365 128 365 145 395 c 0,11,12
 166 430 166 430 205 430 c 0,13,14
 243 430 243 430 265 394 c 0,15,16
 282 365 282 365 282 323 c 0,17,18
 282 286 282 286 268 257 c 0,19,20
 270 253 270 253 279 243 c 128,-1,21
 288 233 288 233 288 225 c 0,22,23
 288 202 288 202 264 202 c 0,0,1
205 388 m 0,24,25
 188 388 188 388 178 363 c 0,26,27
 170 344 170 344 170 323 c 0,28,29
 170 303 170 303 178 284 c 0,30,31
 188 259 188 259 205 259 c 0,32,33
 210 259 210 259 214 261 c 1,34,35
 184 291 184 291 184 303 c 0,36,37
 184 325 184 325 206 325 c 0,38,39
 218 325 218 325 224 315.5 c 128,-1,40
 230 306 230 306 236 297 c 1,41,42
 240 311 240 311 240 323 c 0,43,44
 240 345 240 345 233 363 c 0,45,46
 223 388 223 388 205 388 c 0,24,25
EndSplineSet
EndChar

StartChar: r
Encoding: 114 114 85
Width: 410
VWidth: 1210
Flags: W
LayerCount: 2
Fore
SplineSet
178 293 m 1,0,1
 181 290 181 290 181 281 c 0,2,3
 181 230 181 230 181 234 c 1,4,5
 178 203 178 203 158 203 c 0,6,7
 137 203 137 203 137 226 c 128,-1,8
 137 249 137 249 136 297 c 128,-1,9
 135 345 135 345 135 369 c 0,10,11
 135 398 135 398 137 406 c 0,12,13
 142 427 142 427 160 427 c 2,14,-1
 204 427 l 2,15,16
 235 427 235 427 256 409.5 c 128,-1,17
 277 392 277 392 277 360 c 0,18,19
 277 316 277 316 239 299 c 1,20,21
 246 292 246 292 262.5 261.5 c 128,-1,22
 279 231 279 231 279 223 c 0,23,24
 279 202 279 202 258 202 c 0,25,26
 240 202 240 202 218 249.5 c 128,-1,27
 196 297 196 297 186 297 c 0,28,29
 184 297 184 297 178 293 c 1,0,1
184 387 m 0,30,31
 176 387 176 387 176 380 c 0,32,33
 176 378 176 378 178 371.5 c 128,-1,34
 180 365 180 365 180 362 c 0,35,36
 180 358 180 358 177.5 350 c 128,-1,37
 175 342 175 342 175 339 c 0,38,39
 175 329 175 329 186 329 c 0,40,41
 187 329 187 329 205 336 c 1,42,43
 235 336 235 336 235 360 c 0,44,45
 235 383 235 383 207 383 c 0,46,47
 203 383 203 383 195.5 385 c 128,-1,48
 188 387 188 387 184 387 c 0,30,31
EndSplineSet
EndChar

StartChar: s
Encoding: 115 115 86
Width: 410
VWidth: 1210
Flags: W
LayerCount: 2
Fore
SplineSet
247 358 m 0,0,1
 226 358 226 358 226 380 c 1,2,3
 214 388 214 388 202 388 c 0,4,5
 176 388 176 388 176 369 c 0,6,7
 176 356 176 356 200 344 c 0,8,9
 236 327 236 327 246 319 c 0,10,11
 270 299 270 299 270 267 c 0,12,13
 270 238 270 238 248.5 219.5 c 128,-1,14
 227 201 227 201 198 201 c 256,15,16
 169 201 169 201 150 216 c 0,17,18
 128 233 128 233 128 261 c 0,19,20
 128 283 128 283 151 283 c 0,21,22
 166 283 166 283 172 264 c 128,-1,23
 178 245 178 245 198 245 c 0,24,25
 208 245 208 245 218 251.5 c 128,-1,26
 228 258 228 258 228 268 c 0,27,28
 228 280 228 280 180 307.5 c 128,-1,29
 132 335 132 335 132 369 c 0,30,31
 132 395 132 395 153.5 413 c 128,-1,32
 175 431 175 431 202 431 c 0,33,34
 225 431 225 431 247.5 416 c 128,-1,35
 270 401 270 401 270 380 c 0,36,37
 270 358 270 358 247 358 c 0,0,1
EndSplineSet
EndChar

StartChar: t
Encoding: 116 116 87
Width: 410
VWidth: 1210
Flags: W
LayerCount: 2
Fore
SplineSet
264 383 m 0,0,1
 235 383 235 383 225 386 c 1,2,3
 224 374 224 374 224 374 c 2,4,5
 224 371 224 371 225 365 c 128,-1,6
 226 359 226 359 226 355 c 0,7,8
 226 337 226 337 227 299.5 c 128,-1,9
 228 262 228 262 228 244 c 0,10,11
 228 201 228 201 205 201 c 0,12,13
 186 201 186 201 182 238 c 1,14,15
 183 236 183 236 183 290 c 0,16,17
 183 370 183 370 186 384 c 1,18,-1
 181 386 l 1,19,20
 170 383 170 383 165 383 c 0,21,22
 124 383 124 383 124 405 c 0,23,24
 124 423 124 423 144 427 c 0,25,26
 149 428 149 428 179 428 c 2,27,-1
 264 428 l 2,28,29
 285 428 285 428 285 405 c 0,30,31
 285 383 285 383 264 383 c 0,0,1
EndSplineSet
EndChar

StartChar: u
Encoding: 117 117 88
Width: 410
VWidth: 1210
Flags: W
LayerCount: 2
Fore
SplineSet
214 201 m 0,0,1
 128 201 128 201 128 275 c 0,2,3
 128 297 128 297 128 342 c 0,4,5
 129 386 129 386 129 408 c 128,-1,6
 129 430 129 430 151 430 c 0,7,8
 172 430 172 430 172 409 c 128,-1,9
 172 388 172 388 173 347 c 0,10,11
 173 306 173 306 173 286 c 0,12,13
 173 264 173 264 178 257 c 0,14,15
 185 246 185 246 205 246 c 0,16,17
 239 246 239 246 239 291 c 0,18,19
 239 299 239 299 238 315 c 128,-1,20
 237 331 237 331 237 337 c 0,21,22
 237 349 237 349 237 372 c 0,23,24
 238 396 238 396 238 408 c 0,25,26
 238 430 238 430 259 430 c 0,27,28
 281 430 281 430 281 408 c 256,29,30
 281 386 281 386 281 342 c 0,31,32
 282 297 282 297 282 275 c 0,33,34
 282 245 282 245 262.5 223 c 128,-1,35
 243 201 243 201 214 201 c 0,0,1
EndSplineSet
EndChar

StartChar: v
Encoding: 118 118 89
Width: 410
VWidth: 1210
Flags: W
LayerCount: 2
Fore
SplineSet
205 271 m 1,0,1
 208 287 208 287 216 321 c 2,2,-1
 241 414 l 2,3,4
 245 432 245 432 262 432 c 0,5,6
 284 432 284 432 284 409 c 0,7,8
 284 404 284 404 243 243 c 0,9,10
 240 231 240 231 237 219 c 0,11,12
 231 205 231 205 221 205 c 2,13,-1
 189 205 l 2,14,15
 177 205 177 205 171 225 c 0,16,17
 125 400 125 400 125 409 c 0,18,19
 125 431 125 431 148 431 c 0,20,21
 165 431 165 431 170 415 c 0,22,23
 181 366 181 366 205 271 c 1,0,1
EndSplineSet
EndChar

StartChar: w
Encoding: 119 119 90
Width: 410
VWidth: 1210
Flags: W
LayerCount: 2
Fore
SplineSet
237 309 m 1,0,1
 241 348 241 348 241 410 c 0,2,3
 241 431 241 431 264 431 c 0,4,5
 286 431 286 431 286 410 c 2,6,-1
 286 382 l 2,7,8
 286 357 286 357 279 298 c 0,9,10
 273 235 273 235 267 219.5 c 128,-1,11
 261 204 261 204 235 204 c 0,12,13
 221 204 221 204 213 223 c 0,14,15
 209 238 209 238 205 254 c 1,16,17
 199 226 199 226 194 218 c 0,18,19
 186 204 186 204 162 204 c 0,20,21
 150 204 150 204 144 220 c 0,22,23
 125 270 125 270 125 410 c 0,24,25
 125 431 125 431 146 431 c 256,26,27
 167 431 167 431 167 410 c 0,28,29
 167 361 167 361 173 305 c 1,30,31
 179 330 179 330 181 335 c 0,32,33
 189 350 189 350 205 350 c 0,34,35
 223 350 223 350 229 339 c 0,36,37
 230 337 230 337 237 309 c 1,0,1
EndSplineSet
EndChar

StartChar: x
Encoding: 120 120 91
Width: 410
VWidth: 1210
Flags: W
LayerCount: 2
Fore
SplineSet
206 357 m 1,0,1
 214 376 214 376 223 395 c 0,2,3
 239 429 239 429 255 429 c 0,4,5
 278 429 278 429 278 408 c 0,6,7
 278 402 278 402 237 333 c 0,8,9
 228 317 228 317 228 321 c 1,10,11
 228 317 228 317 254 278 c 128,-1,12
 280 239 280 239 280 230 c 0,13,14
 280 204 280 204 258 204 c 0,15,16
 245 204 245 204 231 228 c 0,17,18
 219 249 219 249 205 280 c 1,19,20
 195 259 195 259 186 239 c 0,21,22
 169 204 169 204 152 204 c 0,23,24
 130 204 130 204 130 226 c 0,25,26
 130 239 130 239 155.5 278 c 128,-1,27
 181 317 181 317 181 318 c 0,28,29
 181 323 181 323 156.5 359 c 128,-1,30
 132 395 132 395 132 408 c 0,31,32
 132 430 132 430 154 430 c 0,33,34
 166 430 166 430 185 400.5 c 128,-1,35
 204 371 204 371 206 357 c 1,0,1
EndSplineSet
EndChar

StartChar: y
Encoding: 121 121 92
Width: 410
VWidth: 1210
Flags: W
LayerCount: 2
Fore
SplineSet
206 352 m 1,0,1
 206 353 206 353 208 362 c 0,2,3
 210 375 210 375 228.5 403.5 c 128,-1,4
 247 432 247 432 257 432 c 0,5,6
 279 432 279 432 279 410 c 0,7,8
 279 401 279 401 254 358.5 c 128,-1,9
 229 316 229 316 228 308 c 0,10,11
 228 307 228 307 228 281 c 0,12,13
 228 232 228 232 228 234 c 1,14,15
 224 203 224 203 205 203 c 0,16,17
 182 203 182 203 182 250 c 0,18,19
 182 260 182 260 183 277 c 128,-1,20
 184 294 184 294 184 297 c 0,21,22
 184 311 184 311 157.5 354 c 128,-1,23
 131 397 131 397 131 410 c 0,24,25
 131 432 131 432 152 432 c 0,26,27
 165 432 165 432 172 420 c 0,28,29
 187 393 187 393 206 352 c 1,0,1
EndSplineSet
EndChar

StartChar: z
Encoding: 122 122 93
Width: 410
VWidth: 1210
Flags: W
LayerCount: 2
Fore
SplineSet
209 386 m 1,0,1
 200 386 200 386 181.5 384 c 128,-1,2
 163 382 163 382 155 382 c 0,3,4
 134 382 134 382 134 405 c 256,5,6
 134 428 134 428 155 428 c 0,7,8
 169 428 169 428 199 427 c 0,9,10
 228 427 228 427 243 427 c 0,11,12
 265 427 265 427 265 405 c 0,13,14
 265 396 265 396 227.5 326.5 c 128,-1,15
 190 257 190 257 181 248 c 1,16,17
 187 246 187 246 185 246 c 1,18,19
 186 246 186 246 193.5 248.5 c 128,-1,20
 201 251 201 251 206 251 c 0,21,22
 246 251 246 251 248 251 c 0,23,24
 276 247 276 247 276 229 c 256,25,26
 276 211 276 211 253 207 c 0,27,28
 246 205 246 205 216 205 c 0,29,30
 210 205 210 205 199 206 c 128,-1,31
 188 207 188 207 183 207 c 0,32,33
 150 207 150 207 150 207 c 2,34,35
 132 210 132 210 132 229 c 0,36,37
 132 235 132 235 166.5 305 c 128,-1,38
 201 375 201 375 209 386 c 1,0,1
EndSplineSet
EndChar

StartChar: braceleft
Encoding: 123 123 94
Width: 410
VWidth: 1210
Flags: W
LayerCount: 2
Fore
SplineSet
216 274 m 0,0,1
 219 248 219 248 238 248 c 0,2,3
 241 248 241 248 247 248 c 128,-1,4
 253 248 253 248 257 248 c 0,5,6
 279 248 279 248 279 226 c 256,7,8
 279 204 279 204 236 204 c 0,9,10
 212 204 212 204 195 218 c 128,-1,11
 178 232 178 232 176 255 c 0,12,13
 173 297 173 297 164 297 c 0,14,15
 162 297 162 297 161 296 c 2,16,-1
 157 296 l 2,17,18
 153 295 153 295 151 295 c 0,19,20
 130 295 130 295 130 317 c 0,21,22
 130 332 130 332 140 336 c 0,23,24
 142 337 142 337 162 340 c 0,25,26
 176 341 176 341 176 352 c 0,27,28
 176 355 176 355 175 361 c 128,-1,29
 174 367 174 367 174 370 c 0,30,31
 174 431 174 431 257 431 c 0,32,33
 279 431 279 431 279 409 c 256,34,35
 279 387 279 387 248.5 387 c 128,-1,36
 218 387 218 387 218 371 c 0,37,38
 218 335 218 335 205 318 c 1,39,40
 212 309 212 309 216 274 c 0,0,1
EndSplineSet
EndChar

StartChar: bar
Encoding: 124 124 95
Width: 410
VWidth: 1210
Flags: W
LayerCount: 2
Fore
SplineSet
228 230 m 0,0,1
 228 225 228 225 226 214.5 c 128,-1,2
 224 204 224 204 224 198 c 0,3,4
 224 195 224 195 225 189 c 128,-1,5
 226 183 226 183 226 180 c 0,6,7
 226 159 226 159 205 159 c 0,8,9
 182 159 182 159 182 219 c 0,10,11
 182 225 182 225 183.5 236.5 c 128,-1,12
 185 248 185 248 185 254 c 0,13,14
 185 265 185 265 183 288 c 128,-1,15
 181 311 181 311 181 323 c 0,16,17
 181 337 181 337 182 365.5 c 128,-1,18
 183 394 183 394 183 408 c 0,19,20
 183 428 183 428 205 428 c 0,21,22
 228 428 228 428 228 408 c 2,23,-1
 228 328 l 2,24,25
 228 317 228 317 227 296 c 128,-1,26
 226 275 226 275 226 265 c 0,27,28
 226 259 226 259 227 247.5 c 128,-1,29
 228 236 228 236 228 230 c 0,0,1
EndSplineSet
EndChar

StartChar: braceright
Encoding: 125 125 96
Width: 410
VWidth: 1210
Flags: W
LayerCount: 2
Fore
SplineSet
132 226 m 0,0,1
 132 248 132 248 172 248 c 0,2,3
 192 248 192 248 193 273 c 0,4,5
 194 292 194 292 195 296 c 0,6,7
 197 309 197 309 204 318 c 1,8,9
 194 332 194 332 193 347 c 0,10,11
 193 355 193 355 193 369 c 0,12,13
 193 387 193 387 153 387 c 0,14,15
 131 387 131 387 131 409 c 0,16,17
 131 430 131 430 173 430 c 0,18,19
 235 430 235 430 235 352 c 0,20,21
 235 339 235 339 250 339 c 0,22,23
 251 339 251 339 254 339 c 128,-1,24
 257 339 257 339 259 339 c 0,25,26
 281 339 281 339 281 317 c 256,27,28
 281 295 281 295 259 295 c 0,29,30
 257 295 257 295 252 296 c 2,31,-1
 249 296 l 2,32,33
 248 296 248 296 246 296 c 0,34,35
 234 296 234 296 235 275 c 0,36,37
 235 264 235 264 235 265 c 1,38,39
 235 237 235 237 218 220.5 c 128,-1,40
 201 204 201 204 173 204 c 2,41,-1
 162 204 l 2,42,43
 132 205 132 205 132 226 c 0,0,1
EndSplineSet
EndChar

StartChar: asciitilde
Encoding: 126 126 97
Width: 410
VWidth: 1210
Flags: W
LayerCount: 2
Fore
SplineSet
172 390 m 0,0,1
 170 390 170 390 161 379 c 128,-1,2
 152 368 152 368 140 368 c 0,3,4
 121 368 121 368 121 386 c 0,5,6
 121 405 121 405 136.5 418.5 c 128,-1,7
 152 432 152 432 171 432 c 0,8,9
 188 432 188 432 210.5 421 c 128,-1,10
 233 410 233 410 238 410 c 0,11,12
 240 410 240 410 249 421 c 128,-1,13
 258 432 258 432 270 432 c 0,14,15
 289 432 289 432 289 414 c 256,16,17
 289 396 289 396 273 382 c 128,-1,18
 257 368 257 368 239 368 c 0,19,20
 224 368 224 368 201.5 379 c 128,-1,21
 179 390 179 390 172 390 c 0,0,1
EndSplineSet
EndChar

